<svg xmlns="http://www.w3.org/2000/svg" fill="#cc4600" viewBox="457.42 118.08 728.53 682.97"><path d="m794.963 152.732 2.33 2.018q2.33 2.018 7.764 6.487t8.983 7.476q3.549 3.007 8.68 7.983 5.132 4.976 8.035 7.502 2.903 2.525 8.506 7.995 5.602 5.47 8.401 9.001 2.798 3.531 4.918 6.551 2.12 3.021 5.913 7.487t6.178 8.531q2.385 4.065 4.48 8.095 2.095 4.03 4.186 8.559 2.091 4.529 3.762 9.093 1.671 4.564 3.668 10.057t3.653 11.568q1.656 6.075 2.759 11.143 1.103 5.068 2.204 12.124 1.101 7.056 2.103 13.564 1.001 6.508 1.215 13.169.214 6.661.246 13.2.032 6.538.042 14.035.01 7.497.01 14.007 0 6.511-.419 14.581t-2.173 15.395q-1.754 7.325-4.159 14.484t-5.341 14.287q-2.935 7.128-5.944 14.607-3.009 7.479-6.452 14.616-3.443 7.136-7.388 13.812-3.946 6.676-7.95 13.645-4.004 6.97-7.967 12.664-3.962 5.694-8.92 11-4.957 5.306-10.457 10.446-5.5 5.14-10.51 9.281-5.01 4.141-11.563 7.983-6.553 3.842-25.56 11.136-19.007 7.294-29.222 9.609-10.215 2.314-15.28 3.356-5.065 1.041-14.632 2.186-9.566 1.144-18.58 2.156-9.014 1.012-17.079 1.582-8.065.569-15.499 1.479-7.433.91-10.075 1.041-2.642.131-13.574.628t-16.53.557q-5.598.06-11.112.071-5.514.01-11.62-.385-6.106-.396-12.923-2.149-6.817-1.753-13.846-3.734-7.029-1.98-13.675-4.402-6.646-2.421-9.828-3.863-3.181-1.442-9.107-3.957-5.925-2.515-10.901-4.53-4.975-2.015-9.53-3.995-4.554-1.98-8.637-3.95-4.083-1.97-8.533-3.99-4.45-2.02-7.691-3.949-3.241-1.93-6.542-3.489-3.301-1.559-6.51-3.496-3.209-1.937-5.543-3.881-2.334-1.944-3.134-2.486l-2.279-1.541q-1.479-1-2.981-2.006-1.501-1.007-2.463-1.965-.962-.958-1.935-1.951l-1.471-1.5q-.498-.508-1.209-1.039-.711-.531-2.27-2.506-1.558-1.975-2.424-2.974-.865-.999-1.228-1.567t-1.464-2.581q-1.101-2.014-1.231-2.351-.13-.337-.176-.696-.046-.359-.005-.718t.167-.698q.126-.339.33-.638.203-.299.473-.54.269-.242.588-.412.319-.17.67-.259.351-.089.712-.091.362-.002.713.082.352.084.673.25.321.166.593.404.272.238.48.534l.207.296 1.034 1.895q1.034 1.895 1.093 2.04.059.145 1.04 1.287.981 1.142 1.995 2.569 1.014 1.427 2.017 2.213 1.002.786 1.503 1.297l1.503 1.534q1.002 1.023 1.474 1.569t1.97 1.549q1.499 1.003 2.999 2.017 1.501 1.014 2.532 1.732 1.031.718 2.993 2.395t4.899 3.466q2.937 1.789 6.49 3.484 3.553 1.694 6.496 3.468 2.943 1.773 7.455 3.822 4.512 2.049 8.488 3.969 3.975 1.92 8.459 3.871t9.505 3.985q5.021 2.034 11.016 4.58 5.995 2.546 8.963 3.901 2.968 1.355 9.4 3.707t13.405 4.317q6.973 1.965 13.237 3.629t12.159 2.052q5.895.388 11.382.377 5.487-.01 10.981-.068 5.494-.057 16.418-.554 10.924-.497 13.347-.609 2.423-.113 10.008-1.037 7.585-.924 15.527-1.482 7.942-.558 16.935-1.568 8.994-1.01 18.312-2.114 9.318-1.104 14.328-2.134 5.01-1.029 14.815-3.22 9.806-2.19 28.375-9.276 18.57-7.086 24.723-10.65 6.153-3.564 11.021-7.581 4.868-4.016 10.228-9.017 5.36-5.001 10.046-9.973 4.687-4.972 8.506-10.442 3.82-5.47 7.843-12.473 4.023-7.003 7.85-13.456 3.826-6.453 7.187-13.404t6.379-14.454q3.019-7.503 5.884-14.445 2.866-6.942 5.199-13.853 2.333-6.911 4.007-13.692 1.674-6.781 2.088-14.686.414-7.905.414-14.411 0-6.506-.01-13.993-.01-7.486-.041-13.948-.031-6.462-.211-12.761-.18-6.299-1.18-12.799-1-6.5-2.069-13.381t-2.135-11.799q-1.066-4.918-2.647-10.755-1.581-5.837-3.577-11.326l-3.573-9.825q-1.577-4.336-3.606-8.739-2.029-4.402-4.057-8.31-2.028-3.908-4.111-7.545-2.083-3.637-6.039-8.314-3.956-4.676-5.976-7.563-2.02-2.887-4.561-6.131t-8.014-8.595q-5.474-5.351-8.496-7.986-3.022-2.635-8.005-7.476-4.982-4.841-8.497-7.819-3.514-2.979-9.007-7.497-5.492-4.518-7.822-6.536t-2.573-2.286q-.243-.268-.414-.586-.172-.318-.262-.668-.09-.35-.095-.712-.004-.362.079-.714t.247-.674q.164-.322.401-.595.237-.273.532-.482.295-.209.632-.341.337-.132.695-.18.358-.048.718-.008.359.04.699.164.34.124.639.327l.3.202m-242.637 120.35 2.072-.486q2.072-.486 3.051-.695.978-.209 1.868-.511.889-.302 1.479-.448.59-.146 1.478-.466.888-.32 1.477-.478.589-.158 1.163-.269.575-.111.885-.263.311-.151.904-.329.593-.177 1.157-.305.564-.128 1.143-.221.579-.093 1.116-.16.537-.067 1.079-.117.541-.05 1.067-.088.525-.038 1.052-.064.527-.026 1.298-.228t1.675-.516q.904-.314 2.038-.555 1.135-.241 1.702-.325.567-.084 1.405-.344.838-.259 1.765-.612.927-.353 2.986-.974t2.628-.758q.569-.137 1.148-.236.58-.099.881-.24.301-.141.876-.309t1.164-.291q.589-.123 1.124-.212.536-.089 1.109-.155t1.113-.11q.54-.044 1.05-.081.51-.036 1.041-.063.531-.027 1.557-.058 1.026-.031 1.545-.042.519-.011 1.034-.016.515-.005 1-.015.485-.01 1.015-.01.53 0 1.015-.005l.985-.01q.5-.005 1.015-.005h1.015q.5 0 .985-.005t1-.005q.515 0 1.055.008.54.008 2.16.55 1.619.542 2.377.948.757.406 2.033 1.342 1.276.936 2.426 1.923 1.15.988 2.004 1.983.854.995 1.56 2.03.706 1.035 1.511 2.007.805.972 1.503 2.005.699 1.033 1.31 2.052.611 1.019 1.175 2.035.564 1.017.888 1.482.324.465.796 1.615.472 1.15.705 1.556.233.406.617 1.548t.599 2.283q.215 1.142.34 2.216.124 1.075.191 2.147.067 1.072.109 2.103.042 1.031.072 2.561.031 1.53-.225 3.305-.256 1.775-.601 3.008t-.829 2.771q-.483 1.538-1.433 4.12-.95 2.582-1.852 4.342-.902 1.76-1.87 3.38-.969 1.62-1.952 3.176-.984 1.556-1.948 2.782-.965 1.226-2.449 2.862-1.484 1.636-1.995 2.179-.511.543-2.008 1.799-1.497 1.256-4.019 2.962-2.522 1.706-3.109 2.01-.587.303-1.59.793-1.003.489-2.993 1.478-1.989.989-3.698 1.429-1.708.44-3.344.641-1.636.2-3.013.518t-3.529.533q-2.152.216-3.717.297-1.565.081-3.1.118-1.535.037-3.551.057-2.016.02-3.53.026-1.514.005-2.516.01t-2.505.005h-2.513q-1.01-.001-2.324-.232-1.314-.231-2.183-.329-.869-.098-2.128-.423-1.26-.325-2.411-.736t-1.507-.502q-.355-.091-1.172-.446-.816-.355-1.53-.77-.714-.415-1.386-.889-.672-.474-1.282-.955-.61-.48-1.965-1.962l-1.826-1.998q-.471-.516-1.217-1.529-.745-1.013-1.393-2.042-.647-1.029-1.229-2.047-.582-1.018-.841-1.618-.258-.6-.822-2.115-.564-1.515-.975-2.482-.411-.967-.604-1.559t-.411-1.718q-.218-1.126-.5-1.999-.282-.874-.5-2.001-.218-1.127-.344-2.216-.126-1.089-.198-2.153-.072-1.064-.113-2.093-.042-1.029-.237-1.805-.195-.776-.348-1.881-.153-1.105-.242-2.172-.089-1.067-.117-1.617-.028-.55-.069-1.556-.041-1.006-.052-1.54-.011-.534-.026-1.538t-.025-1.501q-.01-.497-.015-1.012-.005-.515-.005-1.03t-.005-1-.005-1v-1.015q0-.5-.005-.985t-.005-2q0-1.515.043-1.874.044-.359.172-.697.128-.338.334-.636.205-.298.476-.537.271-.24.591-.408.32-.168.671-.255.351-.087.713-.087t.713.087q.351.087.671.255.32.168.591.408.271.24.476.537.205.298.334.636.128.338.172.697l.044.359v1.485q0 1.485.005 2 .005.515.005 1.015v.985q0 .485.005 1t.005 1q0 .485.005.97t.015.997q.01.512.025 1.499.015.988.024 1.462.009.474.049 1.45.039.975.062 1.434.022.458.095 1.371.072.913.181 1.769.109.856.371 2.149.262 1.293.301 2.254.039.961.098 1.887.059.926.154 1.806t.229 1.665q.134.785.5 1.999.366 1.215.497 1.991t.224 1.093q.092.317.553 1.408.461 1.091.99 2.518.53 1.427.618 1.677.088.25.607 1.161t1.052 1.771q.534.86 1.066 1.611t1.022 1.288q.49.537 1.475 1.671.985 1.133 1.475 1.523.49.389.949.724.458.335.904.608.446.274.788.456t.926.345q.584.163 1.503.501.919.338 1.748.579.829.242 1.922.375 1.092.133 1.837.309.745.175 1.744.175l2.487-.001q1.488 0 2.495-.005l2.501-.01q1.494-.005 3.47-.025 1.975-.02 3.43-.054t2.888-.105q1.433-.071 3.214-.228 1.78-.157 3.463-.526 1.682-.37 2.985-.512 1.303-.142 2.375-.353t3.065-1.204q1.994-.993 2.99-1.479.997-.486 1.234-.587.237-.101 2.517-1.626 2.28-1.526 3.508-2.529 1.228-1.004 1.703-1.508.475-.504 1.831-1.99 1.356-1.486 2.133-2.448.777-.962 1.723-2.456.946-1.494 1.825-2.955.88-1.461 1.63-2.877.75-1.416 1.652-3.857.902-2.441 1.366-3.915.464-1.474.727-2.339.263-.865.483-2.12.22-1.255.19-2.716-.029-1.462-.068-2.431-.039-.969-.092-1.887-.054-.918-.15-1.803-.097-.885-.223-1.662-.126-.777-.293-1.4-.167-.623-.564-1.392-.397-.768-.546-1.293-.149-.525-.608-1.207-.459-.682-.975-1.615-.516-.933-1.046-1.824t-1.056-1.69q-.526-.8-1.497-1.995-.971-1.195-1.496-1.989-.525-.793-1.037-1.44-.512-.647-1.493-1.497-.981-.851-1.916-1.567-.935-.716-1.357-.962-.422-.246-1.002-.587-.58-.341-1.04-.333-.46.008-.945.008-.485 0-1 .005t-1.015.005h-.985q-.485 0-.985.005l-1.015.01q-.515.005-.985.005t-.985.01q-.515.01-1 .015-.485.005-.974.015-.489.01-1.455.039-.966.029-1.435.052-.469.023-.949.057t-.93.07q-.45.036-.867.08-.417.044-.851.115-.434.071-.795.139-.361.068-.708.161t-1.194.38q-.847.287-1.238.348-.39.062-.787.153t-2.262.647q-1.865.556-3.008.981-1.143.425-2.385.772-1.242.347-1.653.405-.411.058-1.178.2-.767.142-1.953.536t-2.476.669q-1.29.274-1.763.298-.473.024-.938.056-.465.033-.913.073-.448.04-.891.094t-.833.111q-.391.058-.776.14-.386.083-.705.167-.319.084-1.166.39t-1.233.376q-.385.069-.736.155t-1.533.492q-1.182.406-1.532.484-.35.078-1.549.464-1.199.386-2.12.582-.921.196-2.993.682-2.072.486-2.432.525-.359.04-.718-.008-.358-.048-.695-.18-.337-.132-.632-.341-.295-.209-.532-.482-.237-.273-.401-.595-.164-.322-.247-.674-.083-.352-.078-.714.004-.362.095-.712t.262-.668q.172-.318.415-.586.243-.268.543-.47.3-.202.64-.326l.339-.124" paint-order="stroke fill markers" style="mix-blend-mode:source-over"/><path d="m537.879 292.884 1.924-1.924 2.436-2.436 1.009-1.008q.497-.496.541-.607.044-.111 1.004-1.064.96-.953 1.974-1.711 1.014-.758 1.496-1.334.483-.576.99-1.116.508-.539 1.507-1.353 1-.814 1.511-1.245.512-.431 1.052-.778.54-.347 1.498-1.094.958-.747 1.517-1.071.559-.324.485-.316-.074.009.432-.467.506-.476 1.034-.848t.505-.401q-.023-.029.489-.423.512-.395.513-.441.001-.047.484-.444l.486-.399.314-.185q.312-.183.658-.287.346-.104.708-.121.361-.018.716.052.355.069.683.222.328.152.61.379.282.226.502.514.22.287.364.619.145.331.206.688.061.356.035.717-.026.361-.138.705-.112.344-.302.651-.191.307-.449.56-.259.253 1.209 3.367t1.662 5.279q.194 2.164.285 5.739.091 3.575-.218 6.771-.309 3.197-.625 4.479t-.822 3.267q-.506 1.985-1.01 3.981-.504 1.997-.965 3.571-.461 1.574-.886 2.719-.426 1.144-.89 2.232-.465 1.088-.557 1.403-.092.315-.465 1.107t-.462 1.07l-.09.282-.163.327q-.162.323-.397.598-.235.275-.528.486-.294.211-.629.346-.336.135-.694.185-.358.05-.718.013-.36-.037-.7-.159-.34-.122-.642-.322-.301-.2-.546-.466-.245-.266-.419-.583-.174-.317-.267-.666-.093-.349-.1-.711-.007-.362.073-.714.08-.353.486-1.223.406-.871 2.305-3.671t3.42-5.219q1.521-2.419 3.962-5.247 2.441-2.828 4.944-5.788 2.504-2.96 4.005-4.576 1.501-1.615 3.998-4.52 2.497-2.904 3.506-3.996 1.01-1.092 2.516-2.951t2.5-2.968q.994-1.109 1.995-2.168 1.001-1.059 1.508-1.582l1.007-1.037q.5-.514 1.032-.913t.496-.419q-.036-.02-.034-.022l.275-.239q.273-.237.595-.402.322-.165.674-.249.352-.083.713-.08.362.003.712.093t.669.261q.319.171.587.413.268.242.471.542.203.299.328.639.125.339.165.699.04.359-.007.718t-.178.696q-.131.337-.339.633-.208.296.245-.571.454-.867-.28 2.771t-3.015 8.083q-2.281 4.445-3.334 6.828t-2.464 4.671q-1.411 2.288-2.889 4.4-1.478 2.112-2.97 4.152-1.492 2.04-2.031 2.902-.539.863-1.525 2.387-.986 1.524-1.574 2.778-.589 1.253-1.459 2.322-.871 1.068-1.371 1.611-.5.542-.549.666-.049.124-.524.771-.475.648-.546.827l-.073.183-.205.302q-.203.299-.472.541-.269.242-.588.412-.319.17-.67.259-.351.089-.712.091-.362.003-.713-.082-.352-.084-.673-.25-.321-.166-.594-.404-.272-.238-.48-.534-.207-.296-.338-.633-.131-.337-.177-.696-.046-.359-.005-.718t.167-.698q.126-.339 2.185-3.779t3.06-5.011q1.001-1.571 5.436-7.24 4.435-5.67 7.433-8.88 2.997-3.21 4.52-5.077 1.522-1.867 3.014-3.214 1.491-1.347 2.003-1.814.511-.467 1.532-1.214 1.021-.747 1.499-1.135.479-.388.499-.459.021-.071.509-.503l.491-.434.31-.193q.307-.191.651-.302.344-.112.705-.138.361-.026.717.035t.688.205q.332.144.619.364t.514.502q.226.282.379.61.152.328.222.683.069.355.052.716-.018.361-.121.708t-.287.658q-.183.312-.436.57-.253.259.261-1.335.513-1.593.898.153.385 1.747-.013 4.287t-.823 4.158q-.426 1.618-.971 4.041-.545 2.423-.99 4.025-.445 1.602-1.337 3.815-.892 2.213-1.369 3.286-.477 1.072-1.018 2.471t-1.01 2.479q-.469 1.08-.946 2.122-.477 1.041-.902 1.766-.426.725-.598 1.32-.172.596-.479 1.136-.307.54-.388.739l-.083.202-.2.306q-.198.302-.463.549-.265.246-.581.422-.316.176-.665.271-.349.095-.71.104-.362.009-.715-.069t-.677-.238q-.324-.16-.601-.393-.276-.233-.489-.526-.213-.293-.349-.627-.136-.335-.189-.693-.052-.358-.017-.718.035-.36.155-.701.12-.341.682-1.097t1.556-1.864q.994-1.108 1.989-2.161.995-1.053 3.973-4.082 2.978-3.029 4.498-4.554l2.519-2.53q1-1.005 2.021-1.798 1.021-.793 1.511-1.203.491-.41 1.993-1.696 1.503-1.286 1.785-1.511.283-.225.611-.377.328-.151.684-.219.355-.068.716-.049.361.019.707.123.346.105.657.289.311.184.569.438.258.254.448.561.19.308.3.652.111.344.135.705.025.361-.037.717t-.208.687q-.146.331-.366.618l-.22.286-1.723 1.488q-1.723 1.488-2.318 1.982-.595.493-1.307 1.016t-1.71 1.527l-2.504 2.515q-1.505 1.511-4.443 4.498-2.938 2.987-3.882 3.985-.944.998-1.831 1.98t-1.097 1.187q-.211.205-.409.508-.198.303-.463.549-.265.246-.581.422-.316.176-.665.271-.349.095-.71.104-.362.009-.715-.069t-.677-.238q-.324-.16-.601-.393-.276-.233-.489-.526-.213-.293-.349-.627-.136-.335-.189-.693-.052-.358-.017-.718.035-.36.155-.701l.122-.344.299-.571q.298-.568.253-.409-.044.159.375-.971t.695-1.572q.276-.443.729-1.431.453-.989.876-1.956t1.02-2.501q.597-1.534 1.037-2.519.44-.985 1.22-2.873.781-1.888 1.188-3.342.407-1.454.979-3.985.572-2.531.956-3.971t.785-2.88q.4-1.44.209-2.492-.192-1.053.163-3.003.354-1.95.662-2.141.307-.191.651-.303.344-.112.705-.138.361-.026.717.035t.688.205q.332.144.619.364t.514.502q.226.282.379.61.152.328.222.683.069.355.052.716-.018.361-.121.708t-.287.658q-.183.312-.436.57l-.255.261q-.002.002-.063.011t-.496.491q-.435.481-1.052.977-.617.495-1.37 1.025-.753.53-1.295 1.025-.542.495-1.705 1.501-1.163 1.006-2.813 3.019-1.65 2.013-4.478 5.025-2.827 3.012-7.094 8.443-4.267 5.432-5.224 6.932-.957 1.5-2.923 4.773-1.966 3.272-2.169 3.571-.203.299-.472.541-.269.242-.588.412-.319.17-.67.259-.35.089-.712.092-.362.003-.713-.082-.352-.084-.673-.25-.321-.166-.594-.404-.272-.238-.48-.534-.208-.296-.338-.633-.131-.337-.177-.696-.046-.359-.005-.718t.167-.698l.128-.342.324-.587q.323-.584.675-1.052.352-.469.727-1.018.376-.55.838-1.051.463-.502.893-.905t1.187-1.962q.757-1.559 1.724-3.055.968-1.496 1.624-2.532.656-1.036 2.113-3.026 1.457-1.991 2.847-3.97t2.605-3.897q1.215-1.918 2.351-4.474 1.136-2.555 3.17-6.351 2.035-3.796 2.776-6.094.742-2.299.957-4.038.215-1.739.488-1.977.273-.237.594-.403.322-.165.674-.249.352-.083.713-.08.362.003.712.093t.669.261q.319.171.587.413.269.242.471.542.203.299.328.639.125.339.166.699.04.359-.006.718-.047.359-.178.696-.131.337-.339.633l-.21.298-.48.472q-.478.47-.579.506-.101.036-.592.542l-.971 1.002q-.481.496-1.43 1.498-.948 1.002-1.845 1.998t-2.53 3.002q-1.633 2.006-2.57 3.016-.937 1.01-3.512 4.002t-3.982 4.501q-1.407 1.509-3.939 4.503t-4.699 5.453q-2.167 2.459-3.749 4.973-1.583 2.513-3.25 4.911-1.667 2.398-1.954 2.985-.288.587-.45.91-.162.323-.397.598-.235.275-.528.486-.294.211-.629.346-.336.135-.694.185-.358.05-.718.014-.36-.037-.7-.159-.34-.122-.642-.322-.301-.2-.546-.466-.245-.266-.419-.583-.174-.317-.267-.666-.093-.349-.1-.711-.007-.362.073-.714l.081-.356.225-.598q.223-.595.428-.97t.397-.96q.193-.585.607-1.547t.77-1.896q.355-.934.786-2.398.43-1.464.936-3.467t1.016-4.003q.51-1.999.745-2.83t.529-3.652q.294-2.821.213-6.211-.081-3.39-.229-5.23-.148-1.84-.495-7.917t-.035-6.26q.312-.183.658-.287.346-.104.708-.121.361-.018.716.052.355.069.683.222.328.152.61.379.282.226.502.514.22.287.364.619.145.331.206.688.061.356.035.717-.026.361-.138.705-.112.344-.302.651-.191.307-.449.56l-.261.255-.108.055q-.106.053-.557.496-.451.443-.558.489-.107.045-.581.486-.475.441-.61.504t-.654.552q-.519.489-1.026.898-.507.409-.7.495-.193.087-1.422 1.019-1.229.932-1.393 1.01-.163.077-.737.56-.573.482-1.258 1.006-.684.524-1.15 1.019-.466.495-1.387 1.466-.92.971-1.664 1.505-.744.533-1.284.994-.54.46-.931.992t-.894 1.036l-1.016 1.016-2.436 2.436q-1.924 1.924-2.208 2.147-.285.223-.614.371-.33.148-.685.214-.356.065-.717.043-.361-.022-.706-.129-.345-.108-.655-.295-.309-.187-.565-.443-.256-.256-.443-.565-.187-.309-.295-.655-.108-.345-.129-.706-.022-.361.043-.717t.214-.685q.148-.33.371-.614l.223-.285m91.672-24.871 4.495-.669q4.495-.669 7.332-1.518 2.837-.849 5.811-1.807 2.974-.958 5.022-1.533t5.447-1.889q3.399-1.314 6.957-2.437 3.558-1.123 6.024-2.031 2.466-.908 3.438-1.322.972-.413 3.571-1.153 2.599-.739 3.959-1.41 1.361-.671 2.914-1.295 1.553-.624 3.072-1.185 1.519-.56 2.108-.728.59-.167 1.512-.504.922-.337 1.322-.564.4-.227.981-.464.581-.237 1.164-.41t1.938-.823q1.355-.65 1.696-.77.341-.12.701-.155.36-.035.718.017.358.052.693.189.335.136.627.349.293.213.526.489.233.276.393.601.16.324.238.677.078.353.069.715-.009.362-.104.71-.095.349-.271.665-.176.316-.422.581-.246.265-.549.463l-.302.198-1.852.842q-1.853.842-2.179.929-.326.087-.598.183-.272.096-1.049.489-.777.394-1.926.803-1.148.409-1.496.499-.348.09-1.789.62-1.441.53-2.82 1.079-1.379.549-3.213 1.396-1.833.848-4.081 1.464-2.248.617-3.351 1.082-1.103.465-3.704 1.419-2.6.954-5.983 2.016-3.383 1.062-7.048 2.464t-5.604 1.944q-1.939.542-4.986 1.523-3.047.981-6.285 1.918-3.238.937-7.736 1.607-4.498.67-4.86.679-.361.01-.715-.067-.353-.077-.678-.236-.325-.159-.602-.392-.277-.232-.49-.524-.213-.292-.351-.627-.137-.335-.19-.692-.053-.358-.019-.718t.153-.701q.119-.341.316-.644t.462-.55q.264-.247.58-.424.316-.177.664-.273l.349-.096" paint-order="stroke fill markers" style="mix-blend-mode:source-over"/><path d="M703 248.002v1.983l-.001 2.49q-.001.507.174 1.246.175.738.466 1.613.291.874.436 1.449.145.575.249 1.146.104.571.251.888.147.316.31.874t.113.373q-.05-.185.222.388.272.572.475 1.15.203.578.416.969.213.391.506.84.293.449.571 1.019.279.57.553 1.009.274.439.544 1.032t.461 1.161q.192.568.4.955.209.388.431.98.223.593.446.983t.739 1.39q.515 1 .817 1.45.302.45.589 1.035.288.584.558 1.011.27.427.614.901.344.473.653 1.038.309.565.606 1.015.297.45.657.932.36.481.679 1.052.319.571.621 1.016.302.445.593 1.026.29.581.56 1.016.269.435.271.373.002-.061.503.44t.606.54q.105.039.741.532.635.493 1.072.959.436.466.515.493.079.028.887.55t1.029.61q.221.089.931.508.711.419.956.517.246.098.986.524.74.426 1.23.844.489.417.616.476.126.059.739.521t.805.545q.191.084.692.479.501.395.642.463.141.068.347.141.206.073.519.174.314.101.642.171t.747.147q.419.078 1.255.377.837.299 1.163.384.326.085.701.161.375.076.797.144.421.068 1.638.418 1.217.35 1.58.422.364.072.782.14.418.068.847.119.428.051.876.091t.917.073q.469.033.935.056.466.023.95.043.484.019.969.034.485.015.97.024l.985.02q.5.01.985.015l.974.011q.489.006.676-.083.187-.089.742-.194.555-.105.864-.253.309-.148.905-.324.595-.176 1.511-.521.916-.345 1.321-.578.406-.233.994-.474.589-.241 1.548-.661.959-.42 1.387-.681.428-.262 1.437-.818 1.009-.556 1.468-.873.46-.317.942-.689.482-.372.974-.783.492-.411.982-.846.491-.435 1.482-1.37.992-.935 1.495-1.418l1.013-.974q.51-.49 1.001-.97.491-.48.525-.579.035-.099.512-.719t.565-.807q.088-.187.584-1.133t.946-1.644q.449-.698.975-1.593.525-.896.985-1.559.46-.663.617-1.181.157-.518.557-1.277l.907-1.724q.507-.965.607-1.246.1-.28.488-1.026.389-.746.491-1.02.102-.274.247-.983.145-.709.465-1.527.321-.818.527-1.953.206-1.135.516-1.968.31-.833.507-1.984.197-1.15.51-2.002.313-.852.46-1.562.147-.71.258-1.553.111-.843.182-1.747.071-.905.101-1.387.03-.482.258-1.375t.298-1.244q.07-.351.137-.767.067-.416.118-.844.051-.428.098-.891.047-.463.072-.902.025-.439.062-.889t.097.047q.06.496-.095-.199-.155-.695-.239-1.212-.084-.517-.031-.275.053.242-.156-.324-.209-.566-.433-.956-.223-.389-.461-.972-.237-.582-.411-1.166-.174-.583-.364-.956-.191-.373-.397-.953-.207-.58-.423-.969t-.447-.978q-.231-.589-.398-1.179-.167-.59-.287-1.146-.119-.556-.27-.874-.151-.318-.109-.179.042.14-.005.142-.047.002-.186-.053-.138-.055-.378-.143t-.553-.178q-.313-.09-1.433-.521-1.12-.431-1.467-.528-.347-.097-.707-.168-.36-.071-1.212-.176t-1.773-.173q-.92-.068-2.198-.359t-2.109-.405q-.831-.114-1.735-.189-.903-.075-1.853-.127-.949-.052-1.911-.081-.962-.029-1.947-.048-.985-.02-1.474-.025l-1.485-.015q-.996-.01-1.988-.015-.993-.005-2.481-.005t-2.011-.005q-.523-.005-1.99-.006t-1.678.092q-.211.093-1.825.3-1.614.207-2.857.744t-2.388.819q-1.145.282-2.997 1.016-1.852.734-3.003 1.012-1.152.278-2.596.684-1.444.405-2.371.752t-1.332.578q-.405.231-1.553.608-1.147.378-1.521.579-.374.201-.957.419-.583.218-.981.44t-.849.525q-.451.302-1.025.587-.574.285-1.009.562-.435.276-.91.621-.474.344-.953.728-.478.383-.492.449-.014.066-.487.489t-.498.498q-.026.075-.5.5t-.496.496q-.022.071-.511.634-.489.563-.994.988-.506.424-.493.466.012.041-.495.608t-1.024.985q-.517.418-.497.453.02.035-.482.464-.502.429-.509.483-.007.055-.058.19-.051.136-.152.395-.101.26-.447.782-.345.522-.417.69-.072.168-.167.431-.096.263-.171-.384-.075-.647-.063-1.277.012-.63.05-.637.038-.007.158.042t.327.124q.206.075.486.169.28.094.235.014-.045-.08.453-.085l.981-.008q.484-.003.171.032-.313.035.298.029.611-.005 1.52.373t1.357.83q.447.452.835 1.053.388.601.623 1.393.236.792.303 1.365t.147 1.628q.08 1.055-.092 2.4-.171 1.346-.227 1.801-.055.455-.317 1.32-.261.865-.341 1.209-.08.344-.152.74t-.131.821q-.06.425-.102.856-.043.43-.08.897-.037.467-.059.918l-.047.95q-.025.499-.044.994-.019.496-.142 1.042-.123.546-.206.873-.083.327-.154.706l-.072.383-.113.348q-.113.344-.304.65-.192.307-.451.559-.259.252-.572.434-.312.183-.659.285-.347.102-.708.119t-.716-.054q-.355-.07-.682-.224-.328-.153-.609-.38-.281-.227-.5-.515-.219-.288-.362-.62-.144-.332-.203-.689-.06-.357-.033-.717.027-.361.221-.876.194-.516.614-1.228t.947-1.648q.527-.936 1.434-1.951.907-1.015 1.949-2.635 1.042-1.621 2.01-2.828.968-1.207 1.98-2.6 1.013-1.392 1.549-2.252.536-.859 1.052-1.771.516-.912 1.031-1.865.515-.953 1.028-1.929.513-.976 1.431-2.273.918-1.297 1.419-1.916t1.025-1.417q.524-.798.997-1.427.472-.629.96-1.222t.564-.761q.076-.168.517-.678l.443-.512.286-.226q.284-.224.613-.373t.685-.216q.356-.066.717-.045.361.021.707.127.346.107.656.293.31.186.566.441.256.255.444.564.188.309.297.654.109.345.131.706.023.361-.041.717t-.212.686q-.147.33-.37.615-.222.285.175-1.108.398-1.393.455-.164.058 1.229-.167 2.557-.225 1.327-1.144 4.914-.919 3.587-1.426 5.594-.507 2.007-1.047 4.453-.54 2.446-.857 3.28-.317.834-.853 2.264-.536 1.43-.729 2.609-.193 1.179-.553 2.389-.36 1.21-.501 2.019-.141.809-.344 1.344-.204.535-.312.831-.108.296-.193.626t-.37.897l-.286.568-.231.281q-.23.279-.52.495-.29.216-.623.356-.333.14-.691.197-.357.056-.718.026-.36-.031-.703-.147-.342-.116-.647-.311t-.554-.457q-.249-.262-.429-.576-.179-.314-.278-.662-.099-.348-.112-.709-.013-.361.061-.715t.23-.68q.157-.326.532-.867.376-.541.862-1.16.486-.619.553-.783.067-.164.521-.847.454-.683.93-1.31.476-.627 1.007-1.457.53-.83 1.492-2.043t1.954-2.325q.992-1.112 2.485-2.678 1.493-1.566 2.509-2.866 1.016-1.3 2.507-2.949 1.491-1.65 2.496-2.483 1.005-.833 2.004-1.983.999-1.15 2-1.991 1.001-.842 1.999-1.74.997-.899 1.541-1.263.543-.365.502-.379-.042-.014.504-.418l.549-.405.325-.166q.322-.164.674-.247.352-.083.714-.079.362.004.712.095.35.09.668.262.318.172.586.414.268.243.47.543.202.3.327.639.124.34.164.699.04.359-.008.718-.048.358-.18.695-.132.337-.341.632-.209.295-.482.532-.273.237.336-.577t.262.385q-.347 1.199-.827 2.727-.48 1.528-1.016 3.463t-1.376 3.762q-.84 1.827-1.008 2.507-.168.68-1.006 2.503t-1.389 3.202q-.551 1.379-1.021 2.449-.47 1.069-.566 1.383-.095.313-.526 1.422-.431 1.108-.528 1.452-.097.343-.518 1.472-.421 1.129-.514 1.476-.093.347-.161.707t-.131.78q-.064.42-.122.885-.059.465-.228.999t-.257.83l-.089.3-.154.332q-.153.328-.38.609-.227.282-.514.501-.288.219-.619.363-.332.144-.688.205-.357.06-.717.034-.361-.027-.704-.139-.344-.112-.651-.303-.307-.191-.559-.45-.252-.259-.435-.571-.183-.312-.286-.659-.103-.347-.12-.708t.053-.716q.07-.355.9-1.43.83-1.075 1.824-2.084.994-1.009 1.999-2.019 1.005-1.01 3.001-3.342t3.019-3.705q1.024-1.373 2.99-3.243 1.966-1.87 2.499-2.564.533-.694 2.008-2.325 1.475-1.631 2.478-2.687 1.003-1.055 2.008-2.082l1.994-2.034q.988-1.007 1.056-1.142.068-.135.537-.748.469-.613.946-1.065l.48-.453.303-.202q.301-.2.641-.323.34-.122.7-.16.36-.037.718.013.358.05.694.184.336.134.63.345.294.211.529.485.235.275.397.598.162.323.243.676.08.353.074.714-.006.362-.099.711-.093.35-.266.667-.174.317-.418.584-.245.266.509-.155.753-.421.734 1.447-.019 1.868-.048 3.333-.029 1.466-.044 2.465-.015.999-.3 2.745-.284 1.746-.395 3.106-.11 1.36-.414 2.64-.303 1.281-.421 2.107-.117.827-.192 1.724t-.426 2.603q-.351 1.706-.669 2.546-.318.84-.405 1.156l-.53 1.927q-.443 1.61-.606 1.933-.163.323-.398.597-.235.275-.53.485-.294.21-.63.344-.336.134-.694.183-.358.049-.718.012-.36-.038-.7-.161-.34-.123-.641-.323-.301-.201-.545-.467-.244-.267-.417-.584-.173-.317-.265-.667-.092-.35-.098-.711-.006-.362.075-.714l.081-.352.389-1.448q.389-1.448.575-2.043.185-.596.348-.932.163-.336.458-1.671.295-1.335.391-2.417.096-1.082.271-2.197.175-1.115.399-1.922.224-.807.366-2.418.142-1.611.384-2.896.241-1.285.256-2.294.015-1.009.046-2.543.031-1.533.137-2.569.105-1.036.313-3.598.208-2.562.509-2.763.301-.2.641-.323.34-.122.7-.16.36-.037.718.012.358.05.694.184.336.134.63.345.294.211.529.485.235.275.398.598.162.323.243.676.08.353.074.714-.006.362-.099.711-.093.35-.266.667-.174.317-.418.584l-.247.268q-.002.002-.057.007t-.433.497q-.378.493-.763 1.009-.385.517-1.377 1.529l-1.966 2.006q-.974.994-1.929 1.997-.955 1.004-2.307 2.49-1.352 1.487-2.178 2.497-.826 1.01-2.448 2.496-1.622 1.486-2.765 3.009t-3.289 4.017q-2.146 2.494-3.14 3.494-.995 1-1.972 1.992-.978.992-1.109.909-.131-.084-.284.244-.153.328-.379.61-.227.282-.514.501-.288.219-.619.363-.332.144-.688.205-.357.061-.717.034-.361-.027-.704-.139-.344-.112-.651-.303-.307-.191-.559-.45-.252-.259-.435-.571-.183-.312-.286-.659-.103-.347-.12-.708t.053-.716l.071-.359.202-.592q.2-.588.142-.3-.059.288.003-.237.062-.525.148-1.075.087-.55.21-1.14.123-.59.294-1.173.171-.583.526-1.514t.532-1.508q.177-.577.552-1.528.375-.952.575-1.538.2-.586.632-1.565.432-.978 1.054-2.521.622-1.543 1.286-2.898.664-1.355 1.004-2.497.34-1.142 1.007-2.502.666-1.36 1.229-3.387.563-2.027 1.03-3.511.467-1.484.735-2.35.268-.866.937-2.017.668-1.151.99-1.315.322-.165.674-.247.352-.083.714-.079.362.004.712.094t.668.262q.318.172.586.414.268.243.47.543.202.3.327.639.124.34.164.699.04.359-.008.718-.048.358-.18.695-.132.337-.341.632-.209.295-.482.532l-.276.239q-.003.002-.095.028-.092.027-.576.462-.484.436-.632.503-.149.068-1.248 1.055-1.099.987-1.764 1.506t-2.01 1.999q-1.345 1.479-2.02 2.001-.675.522-2.029 2.01-1.353 1.488-2.554 3-1.2 1.512-2.629 3.008-1.428 1.496-2.315 2.485-.887.989-1.67 1.953-.783.965-1.45 1.988-.667 1.023-1.039 1.507-.373.483-.686.937-.313.454-.65 1.023t-.719 1.05q-.382.48-.691.92-.308.44-.538.719-.23.279-.52.495-.29.216-.623.356-.333.14-.69.197-.357.056-.718.026-.36-.031-.703-.147-.343-.116-.647-.311-.305-.195-.554-.457-.249-.262-.429-.576-.179-.314-.279-.662-.099-.348-.112-.709-.013-.361.061-.715t.23-.68l.157-.327-.064.22q-.065.222.101-.367t.386-1.139q.22-.55.168-.319-.052.231.16-.881t.491-1.99q.279-.877.611-2.558.332-1.681.901-3.196.569-1.515.737-1.873.168-.358.727-2.884.559-2.526 1.069-4.545.51-2.019 1.389-5.429.879-3.411 1.051-4.131.172-.72.2-1.276.028-.556.415-1.988.388-1.432.672-1.656.284-.224.613-.373t.685-.216q.355-.066.717-.046.361.021.707.127.346.107.656.293.31.186.567.441.256.255.444.564.188.309.297.654.109.345.132.706.023.361-.041.717t-.212.686q-.147.33-.37.616l-.224.287q-.002.002.009-.076t-.327.467q-.338.545-.75 1.043-.412.497-.783.984-.371.487-1.064 1.513-.693 1.026-1.088 1.507-.395.481-1.092 1.421-.697.94-1.225 1.945-.528 1.004-1.072 2.011-.545 1.006-1.13 2.034-.585 1.028-1.237 2.057-.652 1.029-1.756 2.541t-1.902 2.487q-.798.975-2.167 3.006-1.369 2.031-1.85 2.47-.481.439-1.04 1.436-.56.997-.835 1.438-.275.441-.24.262.035-.179-.077.165-.113.344-.304.65-.192.307-.451.559-.259.252-.572.434-.312.183-.659.285-.347.103-.708.119-.361.017-.716-.054-.355-.07-.682-.224-.328-.153-.609-.38-.281-.227-.5-.515-.219-.288-.362-.62-.144-.332-.204-.689-.06-.357-.033-.717l.028-.365.12-.585q.119-.581.285-1.168.166-.587.112-.228-.054.359-.042-.145.011-.504.036-1.005l.053-1.04q.028-.539.071-1.072t.101-1.083q.058-.55.138-1.104.081-.554.189-1.118.109-.564.26-1.152.151-.588.278-.862.126-.274.193-.818.066-.543.211-1.218.145-.674.075-1.601-.07-.927-.113-1.33t.09-.212q.133.191.1.104-.032-.087-.035-.134-.002-.046.53.054.532.101 1.122.096.59-.005.11.08-.48.084-.996.092l-1.017.012q-.501.005-1.396-.067-.895-.072-1.494-.279-.599-.207-1.192-.492-.593-.285-1.141-.667-.548-.381-.988-.837-.44-.455-.636-1.383-.196-.928-.268-1.581-.072-.654.173-1.23t.572-1.135q.328-.559.302-.45-.025.109.224-.451.249-.559.609-1.132.36-.573.803-1.048.444-.475.521-.496.077-.022.538-.506t.547-.511q.086-.027.515-.505.429-.479.882-.967t.541-.519q.087-.031.514-.523.427-.492.856-.971.429-.478.504-.504.075-.026.5-.5t.502-.502q.077-.028.518-.514.441-.487 1.053-.973.612-.486 1.268-.951.656-.465 1.377-.895.721-.431.941-.519.219-.088.918-.535.699-.447 1.468-.832.77-.385 1.059-.48.29-.095 1.091-.463.801-.369 1.429-.531.628-.163 1.39-.554.762-.391 1.924-.814 1.161-.423 2.747-.865 1.586-.441 2.323-.593.737-.152 2.987-1.008 2.249-.856 2.985-1.011.736-.155 2.681-.87t3.246-.867q1.301-.152 2.195-.326.895-.175 2.411-.176 1.516-.001 2.01.004.494.005 1.997.005 1.503 0 2.511.005 1.007.005 2.003.015l1.515.015q.519.005 1.534.026 1.015.02 2.053.052t2.079.09q1.041.059 2.117.154t2.186.263q1.11.168 1.911.384.802.216 1.871.299 1.069.083 2.159.228 1.089.145 1.679.274.59.129 1.172.307.583.177 1.512.542.93.364 1.516.555.586.19 1.175.453.589.263 1.149.618t1.041.807q.481.452.834.998t.67 1.386q.317.84.398 1.234.081.394.164.724.083.33.175.603.092.274.473 1.052t.477 1.081q.096.302.443 1.097.347.795.434 1.121.087.326.182.597.095.27.489 1.048t.493 1.077q.099.299.283.817.184.518.26.971.076.453.11.711.033.258.133.862.099.604.076 1.154-.023.55-.058 1.111-.035.561-.089 1.087-.054.527-.123 1.079-.069.552-.162 1.105-.093.554-.225 1.144-.131.59-.241.817-.109.226-.14.752-.031.526-.121 1.601t-.25 2.182q-.16 1.106-.443 2.251-.283 1.144-.441 1.467-.157.323-.51 1.998-.352 1.675-.513 2.016-.161.341-.534 2.012t-.542 2.019q-.169.348-.453 1.5-.285 1.152-.525 1.721-.24.569-.479.991-.239.422-.475 1.001t-.766 1.587q-.53 1.008-.77 1.423-.24.415-.724 1.543t-.827 1.612q-.343.483-.944 1.501-.601 1.018-.904 1.467-.303.449-.842 1.473-.539 1.024-.865 1.57-.326.546-.705 1.032-.379.486-.78 1.02-.4.534-.92 1.044-.519.509-1.029 1l-1.035.995q-.525.504-1.585 1.501-1.06.997-1.619 1.491-.56.494-1.148.983-.589.488-1.217.966-.628.477-1.315.933-.687.456-1.632.976-.945.52-1.684.94-.739.42-1.81.886-1.071.466-1.335.557-.264.091-1.036.49-.772.398-1.917.819-1.145.42-1.471.506-.327.086-1.166.385-.839.299-1.256.375-.416.076-1.308.245-.892.169-1.403.165l-1.026-.009q-.515-.005-1.015-.015l-1.015-.02q-.515-.01-1.03-.026t-1.031-.036q-.516-.021-1.04-.048t-1.055-.064q-.531-.038-1.073-.088-.542-.05-1.093-.119-.552-.069-1.103-.162-.552-.093-1.147-.224-.596-.131-1.45-.398-.854-.266-1.403-.358-.549-.092-1.123-.217t-1.17-.301q-.596-.176-.908-.325-.312-.149-.853-.252-.541-.103-1.152-.254-.611-.151-1.177-.351-.566-.2-1.169-.487-.603-.288-1.13-.649-.527-.362-.459-.357.068.005-.494-.315t-1.055-.695q-.493-.375-1.015-.756-.522-.381-.469-.386.053-.005-.374-.266t-.994-.526q-.567-.265-1.014-.543-.446-.278-1.025-.566-.578-.289-1.609-.97-1.031-.682-1.521-1.105-.49-.423-.509-.49-.019-.067-.48-.431-.461-.364-.998-.759-.538-.396-1.032-.89-.495-.494-.945-1.001-.45-.507-.878-1.23-.428-.722-.511-.934-.083-.212-.537-.914-.454-.702-.53-.884-.075-.182-.544-.821-.469-.639-.909-1.335-.44-.696-.524-.895-.085-.198-.55-.855t-.892-1.377q-.427-.72-.512-.939-.085-.219-.536-.925-.451-.707-.952-1.68-.501-.973-.895-1.751-.394-.778-.484-1.057-.09-.28-.459-1.06t-.468-1.102q-.099-.322-.182-.551-.083-.23-.506-.948t-.517-.951q-.094-.233-.531-.935-.436-.702-.811-1.478-.374-.777-.472-1.088-.098-.311-.184-.535-.087-.224-.357-.763-.271-.54-.369-.893-.099-.354-.39-1.196-.291-.842-.357-1.231-.066-.389-.155-.763-.089-.375-.465-1.58-.377-1.205-.608-2.518-.232-1.313-.232-1.831l-.001-2.501q0-1.983.044-2.342t.172-.697q.128-.338.334-.636.205-.298.476-.537.271-.24.591-.408.32-.168.671-.255.351-.087.713-.087t.713.087q.351.087.671.255.32.168.591.408.271.24.476.537.205.298.334.636.128.338.172.697l.044.359M655.987 412.752l1.79 1.581q1.79 1.581 2.308 2.014.519.432 1.081.926.562.494.985 1.005.422.512.454.488.032-.024.601.489.568.512 1.097 1.005.528.492.659.55.131.057.761.515t1.238.951q.607.493 1.175.99.568.497.712.56.144.063.788.515t.849.541q.205.089.9.528.695.439.92.528.225.089.943.512.718.423.948.506.23.083.55.182.32.098 1.43.53 1.11.431 1.439.519.329.088.713.17.384.082 1.222.184t1.755.169q.917.067 1.394.096.477.029 1.434.062t1.935.053q.978.02 3.447.039 2.469.02 3.471.025 1.002.006 1.74-.17.738-.175 3.217-.666 2.48-.49 3.784-1.09 1.304-.6 1.735-.863.431-.263 1.984-.976 1.553-.712 2.554-1.181 1.001-.468 1.43-.744.429-.276 1.45-.853 1.02-.577 2.036-1.119t1.465-.849q.45-.307 1.475-.914 1.025-.606 1.49-.941.464-.334.945-.716.48-.381.479-.433-.001-.051.493-.617.495-.565.992-1.11.498-.545.551-.673.053-.128.52-.772.466-.644.957-1.248.491-.605.561-.767.07-.162.52-.829.451-.667.535-.874.084-.207.517-.914.433-.707.536-.954.103-.247.441-.74.337-.494.427-.677.09-.184.547-.852.457-.668.536-.868.079-.2.575-1.201.496-1.001.937-1.714.441-.712 1.436-2.25.994-1.537 1.227-1.814.233-.277.525-.49.292-.213.627-.35.335-.137.693-.189.358-.053.718-.018.36.034.701.154.341.12.644.317.303.198.549.462.247.264.423.58.176.316.272.665.095.349.105.71.009.362-.068.715-.078.353-.237.678l-.16.324-.968 1.497q-.968 1.497-1.259 1.941-.291.445-.78 1.433-.489.988-.794 1.572-.304.583-.634 1.051-.33.468-.649.992t-.312.453q.007-.07-.263.486t-.554.996q-.284.44-.583 1.016-.299.576-.625 1.045t-.671 1.031q-.344.561-.743 1.047-.398.485-.749.958-.35.473-.721 1.018t-.833 1.05q-.462.506-.893.996t-.878.982q-.447.491-1.067.979-.62.488-1.292.957t-1.56.989q-.888.52-1.585.976-.697.455-1.651.963-.954.508-1.877 1.028t-1.651.956q-.728.437-1.764.921-1.036.485-2.318 1.057-1.283.573-2.029.995-.746.423-2.648 1.209-1.901.786-4.396 1.281-2.495.495-3.817.726-1.322.231-2.345.226-1.023-.005-3.528-.025t-3.528-.041q-1.022-.021-2.057-.058-1.034-.037-1.556-.069-.522-.032-1.594-.115-1.073-.083-2.176-.231-1.104-.148-1.669-.276-.565-.128-1.157-.305-.591-.177-1.541-.551-.95-.374-1.52-.566-.57-.192-1.163-.462-.593-.27-1.032-.544-.439-.274-1.017-.558-.578-.284-1.03-.582-.452-.298-1.01-.602t-1.04-.649q-.482-.345-1.031-.706-.549-.361-1.042-.794-.492-.433-.975-.829-.483-.396-.969-.755t-1.028-.736q-.542-.377-1.044-.845-.502-.467-.979-.901-.477-.433-.974-.898t-.52-.546q-.023-.081-.521-.517t-1.081-.923q-.583-.487-2.372-2.069-1.79-1.581-2.03-1.852-.24-.27-.409-.59-.168-.32-.255-.671-.087-.351-.087-.713t.086-.713q.086-.351.254-.672.168-.32.407-.591.239-.271.537-.477.297-.206.635-.334.338-.129.697-.173.359-.044.718-.001t.697.171q.338.128.636.333l.298.205M929.83 201.93l1.876-1.964q1.876-1.964 2.51-3.004.634-1.04 1.574-2.016.94-.977 1.468-1.681.528-.705 1.514-1.834t1.48-1.676q.494-.547 1-1.084.505-.537 1.001-1.057.495-.52 1.045-.936.55-.417 1.105-.713.555-.296 1.153-.524.598-.228 1.173-.39.575-.162 1.177-.282.601-.12 1.505-.092.904.029 1.358.06.453.032 1.741.33 1.288.298 1.688.371.4.073.812.126.412.053 1.655.389t2.053.463q.81.127 1.666.421.856.294 1.583.437.727.143 1.585.252.858.109 1.306.155.449.045 1.853.109t2.376.094q.972.03 1.693-.131.721-.161 1.584-.44.863-.279 2.225-.973t1.818-.986q.456-.292 1.931-1.255 1.476-.963 2.982-1.951 1.506-.988 2.474-1.78.968-.793 1.96-1.687.992-.895 2.012-1.63 1.02-.735 1.506-1.306.486-.571 1.487-1.392 1.001-.822 1.999-1.708.998-.886 1.541-1.25.543-.363 1.029-.715.486-.352 1.053-.662.567-.31 1.16-.542.594-.233 1.732-.497t2.234-.416q1.096-.152 2.176-.236 1.08-.084 2.121-.132 1.04-.048 2.569-.084 1.529-.036 2.545-.052 1.017-.015 2.525-.026 1.508-.01 2.515-.015 1.007-.005 2.014-.005 1.008 0 2-.005.993-.005 2.496-.005H1028.485l.994.001q.49.001.674-.085.184-.087.968-.578t2.729-1.811q1.945-1.32 3.456-2.328 1.512-1.008 3.488-2.433 1.976-1.425 4.496-3.041 2.52-1.616 5.555-3.261 3.035-1.645 5.484-3.395 2.45-1.75 5.552-3.162 3.102-1.412 5.513-3.058t6.034-3.094q3.624-1.448 6.051-2.725 2.427-1.277 5.43-2.799 3.002-1.522 6.006-3.034 3.003-1.512 5.481-2.91 2.477-1.398 5.03-2.572 2.552-1.174 3.557-1.651 1.004-.477 3.087-1.199 2.083-.722 3.484-1.447 1.402-.725 2.553-1.089t2.629-.829q1.477-.465 2.42-.834.943-.369 1.539-.545.596-.176 1.153-.302t.893-.288q.336-.162.926-.348.59-.185 1.164-.318t1.128-.232q.553-.099 1.12-.17.566-.072 1.803-.127 1.236-.056 1.587-.144.351-.089.712-.091.362-.002.713.082.352.085.673.251.321.166.593.404.272.238.479.535.207.296.337.634.13.337.176.696.046.359.004.718-.042.359-.168.698-.126.339-.33.638-.204.299-.473.54-.269.241-.589.411l-.319.17-1.95.234q-1.95.235-2.364.283-.413.049-.83.12-.416.072-.782.149-.365.078-.678.164-.312.086-1.134.402-.822.315-1.215.4-.393.085-.727.173-.334.088-1.459.521-1.125.433-2.657.914-1.532.482-2.183.647-.65.165-2.425 1.048-1.774.882-3.546 1.478-1.772.595-2.812 1.089-1.04.494-3.369 1.555t-4.93 2.524q-2.6 1.463-5.597 2.972-2.996 1.508-5.967 3.014-2.971 1.505-5.696 2.918-2.726 1.412-5.78 2.562-3.054 1.15-5.897 3.036-2.843 1.886-5.447 3.013-2.603 1.128-5.35 3.063-2.746 1.935-5.593 3.47-2.847 1.535-5.23 3.057-2.383 1.523-4.448 3.01-2.065 1.487-3.563 2.486-1.498.999-3.667 2.456-2.17 1.457-3.665 2.228-1.496.77-2.401.951-.905.181-1.415.182l-1.015.001H1022.484q-1.488 0-2.496.005-1.007.005-2 .005-.993 0-1.994.005-1.002.005-2.485.015-1.483.01-2.475.025-.992.015-2.454.049-1.463.034-2.412.076-.95.043-1.859.109t-1.763.176q-.854.109-1.587.254-.733.145-.999.233-.266.088-.462.172-.196.084-.836.539-.64.455-.789.524-.149.069-1.257 1.048-1.108.979-1.785 1.499-.677.52-1.614 1.487-.937.967-1.7 1.497-.762.53-1.871 1.524t-2.318 1.963q-1.209.969-2.723 1.961-1.514.992-3.042 1.989-1.528.996-2.24 1.431-.712.435-2.51 1.303-1.799.868-3.025 1.237-1.226.368-2.555.574-1.329.206-2.365.175-1.036-.031-2.605-.107t-2.109-.132q-.539-.056-1.641-.208-1.102-.152-2.248-.42-1.147-.267-1.447-.412-.301-.145-1.421-.34-1.121-.196-1.949-.446-.828-.25-1.396-.328-.568-.078-1.137-.188-.569-.11-1.352-.328-.783-.218-1.319-.256-.536-.038-.592-.107-.056-.069-.414.001t-.703.159q-.344.089-.606.171-.261.083-.476.177-.214.094-.297.113-.083.018-.557.519-.475.5-.939.993-.465.493-.928 1.005-.463.512-1.333 1.5-.869.987-1.662 1.991-.793 1.003-1.324 1.476-.531.473-1.505 1.945-.974 1.472-2.856 3.445-1.882 1.972-2.162 2.202-.279.23-.606.386-.326.156-.68.229-.354.073-.715.06-.361-.013-.709-.113t-.661-.279q-.314-.18-.575-.43-.262-.25-.456-.555-.194-.305-.31-.648-.116-.343-.146-.703-.03-.36.027-.717.057-.357.198-.69.141-.333.357-.623l.216-.29m27.872 101.601 1.72 1.185q1.72 1.185 3.201 2.151 1.481.966 3.561 2.446 2.08 1.48 3.89 2.523 1.81 1.043 3.958 2.51 2.148 1.467 3.979 2.504 1.83 1.037 4.151 2.097 2.32 1.061 4.365 2.049 2.045.989 3.42 1.542t2.81 1.082q1.435.528 2.905 1.039 1.469.511 2.952 1.017 1.483.506 2.691.69 1.208.183 2.093.266.886.083 1.83.139.945.056 2.391.099 1.446.043 2.899.072 1.453.029 4.049-.902 2.597-.931 4.526-1.765 1.929-.834 3.908-1.762 1.979-.928 3.9-2.168 1.921-1.239 2.953-1.836 1.032-.596 2.512-1.521 1.48-.925 2.499-1.507 1.019-.583 1.97-1.317.951-.734 1.511-1.057.559-.324 1.034-.638.475-.315 1.037-.6.563-.285 1.159-.502.596-.217 1.175-.372.579-.155 1.172-.268.593-.113 1.96-.049 1.368.064 3.096.424 1.729.36 3.856 1.558 2.128 1.198 3.401 1.772 1.273.574 3.534 1.994t3.791 2.41q1.53.989 2.442 1.525.912.536 2.466 1.508 1.555.973 3.087 1.971 1.532.999 2.77 1.577t2.572 1.482q1.334.904 2.204 1.434.871.53 1.446.693.575.163 1.68.61 1.104.447 2.535.972 1.431.525 2.18.676.75.151 3.005.316t4.189.232q1.934.067 3.41.092 1.476.025 2.47.035.994.01 2.485.016 1.491.006 2.81.243t2.187.34q.868.103 2.27.185 1.402.082 2.689.362 1.287.28 1.696.35.409.07 1.622.431t2.006.496q.793.135 2.001.495 1.208.36 2.348.801 1.14.441 1.473.529.333.088 1.13.438.797.35 1.835.854 1.037.504 1.542.866.505.362 1.083.882t1.113 1.019q.535.499.947 1.02.412.521.725 1.092.313.571.604 1.012.29.441.306.398.016-.043.427.501.411.543.423.496.012-.048.775.484.763.531 1.94 1.108 1.177.577 2.241.794 1.064.217 5.372.823 4.309.606 6.884 1.06 2.575.454 5.381.612 2.805.157 5.249.211 2.444.054 5.418.079 2.975.025 6.46.03l6.49.01q3.004.005 3.363.049.359.044.697.173.338.129.635.335.297.206.537.477.239.271.407.592.168.32.253.672.086.351.085.713-.001.362-.088.713t-.256.671q-.169.32-.409.59-.24.27-.538.475-.298.205-.636.333-.338.128-.697.171l-.359.043-3.004-.005-6.51-.01q-3.506-.005-6.523-.031t-5.571-.084q-2.555-.058-5.702-.256-3.147-.197-5.625-.636t-7.067-1.098q-4.589-.659-6.285-1.108-1.696-.449-3.271-1.261-1.575-.812-2.591-1.544-1.016-.732-1.503-1.221-.487-.489-.507-.574-.02-.085-.476-.574-.457-.489-.903-1.194-.447-.706-.524-.893-.077-.187-.11-.279-.033-.092-.529-.553-.495-.461-.962-.886-.467-.425-.396-.418.071.007-.904-.465-.975-.472-1.336-.66-.361-.188-.957-.364-.597-.177-1.527-.544-.93-.368-1.801-.645-.871-.278-1.999-.495-1.128-.217-1.986-.492-.858-.275-1.428-.378-.57-.103-1.361-.31-.791-.207-2.37-.306-1.58-.098-2.673-.237-1.093-.139-1.842-.318-.749-.179-2.249-.184-1.5-.005-2.515-.015-1.014-.01-2.547-.036-1.532-.026-3.597-.101-2.064-.075-4.723-.3-2.659-.225-3.798-.49-1.139-.265-2.671-.828-1.532-.563-2.484-.954-.953-.39-2.099-.823-1.146-.432-2.179-1.065-1.032-.633-1.953-1.297-.921-.664-2.495-1.431t-3.062-1.737q-1.488-.971-2.974-1.901-1.486-.931-2.504-1.532t-2.527-1.578q-1.51-.976-3.417-2.205-1.908-1.228-3.479-1.96-1.571-.732-2.821-1.582-1.249-.85-2.561-1.136-1.312-.286-1.896-.389-.584-.103-.951-.035-.367.068-.717.153-.35.086-.624.169-.273.084-.504.182-.23.098-.902.53-.672.432-.865.52-.193.087-1.459 1.028-1.266.941-2.187 1.465-.921.524-2.491 1.503-1.57.979-2.488 1.506-.917.527-3.175 1.951-2.257 1.424-4.329 2.395-2.072.971-4.25 1.899t-5.705 1.999q-3.527 1.071-5.074 1.05-1.547-.022-3.083-.069-1.536-.047-2.591-.112-1.055-.065-2.147-.175-1.092-.11-2.765-.411t-3.18-.815q-1.507-.514-3.027-1.043-1.521-.529-3.045-1.092-1.524-.563-3.079-1.196-1.555-.633-3.547-1.597-1.992-.964-4.543-2.143-2.551-1.179-4.593-2.348-2.042-1.169-4.001-2.517-1.96-1.348-4.002-2.541-2.042-1.193-4.023-2.605-1.981-1.412-3.524-2.42-1.543-1.007-3.263-2.192-1.72-1.185-1.991-1.424-.271-.24-.477-.537-.206-.297-.334-.635-.129-.338-.173-.697-.044-.359-.001-.718t.171-.697q.128-.338.333-.636.205-.298.476-.538.27-.24.59-.408.32-.168.671-.255.351-.087.713-.087t.713.086q.351.086.672.254l.32.168M910.544 472.055l3.039.56q3.039.56 4.452.77 1.413.21 3.063.598 1.65.388 3.422.556 1.772.169 3.678.253 1.906.085 3.864.119 1.958.034 3.943.049t4.474.025q2.489.01 4.807-.29 2.319-.301 5.16-1.059 2.842-.759 4.324-1.199 1.482-.44 2.057-.573.575-.133 1.47-.44t1.461-.45q.565-.143.345-.083-.22.06.367-.206.587-.265 1.316-.46.729-.195 1.964-.053 1.234.142 2.409.89 1.175.748 2.101 1.718.926.971 2.098 2.482 1.172 1.511 1.506 2.083.334.572 1.369 2.575t1.342 2.463q.307.46.902 1.476.595 1.017 1.151 2.033.556 1.017 1.456 2.483.899 1.466 1.251 1.953.352.486.659 1.049.307.562.993 1.49.686.928 1.079 1.418.393.49.815.98.422.49 1.053.985.631.496 2.104 1.127t1.779.729q.307.098 1.495.271 1.188.173 1.628.226.439.053 1.833.134 1.393.081 2.363.12.969.039 1.939.058.97.019 1.962.034.992.015 2.969.025 1.977.01 3.478.015 1.502.005 2.997.005h10.999q1.496 0 3.001.005t3.01.006q1.505.001 2.4.176t1.737.295q.842.121 1.692.393.851.272 1.222.372.371.099.913.364.542.264.776.355.234.091.96.502.726.412 1.404.883.678.472 1.845 1.442 1.167.97 1.733 1.471.566.501 1.328 1.027.762.526 2.225 1.526t2.657 1.976q1.195.976 2.574 1.99 1.379 1.015 2.825 2.021 1.446 1.006 4.402 3.007 2.955 2 4.802 3.04 1.846 1.039 3.156 1.613 1.31.574 2.715 1.118 1.405.544 3.135 1.448 1.73.904 3.452 1.511 1.722.607 3.204 1.123 1.482.516 3.623 1.444 2.141.928 3.561 1.471t2.189.947q.77.404 2.08.962 1.311.558 2.729 1.101 1.418.542 2.498 1.006 1.08.464 2.127.943 1.047.479 1.778.908.731.429 1.663.949.931.52 1.616.98.684.46.893.545.208.085.917.515.708.43 1.623.951.915.52 1.597.981.682.461 1.159.921.477.461.951.97.474.509.95 1.004.475.495 1.246 1.512t1.097 1.605q.326.587.836 1.582.51.995 1.018 1.995t1.014 2.003q.507 1.003 1.152 2.55.646 1.547 1.429 2.972t1.932 2.855q1.148 1.43 2.803 2.917 1.655 1.486 2.531 2.13.876.644 1.183.834.307.191.56.449.253.259.436.57.184.312.287.658.104.346.121.708.018.361-.052.716-.069.355-.221.683-.152.328-.378.61t-.513.502q-.287.22-.619.364-.331.145-.688.206-.356.061-.717.035-.361-.026-.705-.138l-.344-.111-1.638-1.151q-1.638-1.151-3.624-2.995-1.986-1.843-3.41-3.692-1.424-1.848-2.347-3.562-.922-1.713-1.475-3.059-.553-1.345-1.056-2.342-.503-.997-1.006-1.987-.502-.99-1.007-1.974-.505-.985-.577-1.166-.072-.181-.598-.908-.526-.727-1.031-1.252-.504-.525-.986-1.042-.481-.516-.461-.548.021-.032-.444-.354-.465-.322-1.473-.898-1.009-.576-1.457-.863-.448-.287-1.023-.585t-1.037-.621q-.462-.322-1.474-.889t-1.448-.84q-.436-.273-1.419-.724-.983-.451-1.951-.869-.967-.418-2.499-1.007-1.531-.588-3.086-1.265-1.555-.677-1.971-.917-.416-.241-1.956-.833t-3.47-1.438q-1.93-.845-3.445-1.373-1.515-.527-3.617-1.303-2.102-.775-3.52-1.537-1.418-.762-2.953-1.359-1.534-.597-3.103-1.302-1.569-.704-3.62-1.87-2.051-1.166-5.04-3.189t-4.502-3.077q-1.513-1.054-3.018-2.167-1.505-1.113-2.487-1.929-.982-.816-2.479-1.84t-2.519-1.755q-1.022-.731-1.525-1.178-.503-.447-1.478-1.268-.974-.822-1.427-1.149-.452-.327-.893-.593-.441-.266-1.013-.534-.572-.268-.375-.214l-.354-.098q-.551-.152-.857-.289-.306-.137-1.397-.306-1.091-.169-1.302-.262-.211-.093-1.706-.092-1.495.001-2.99-.004t-2.991-.005h-11.009q-1.505 0-3.012-.005-1.507-.005-3.513-.015-2.006-.01-3.014-.025-1.008-.015-2.038-.036-1.03-.021-2.059-.063-1.029-.042-2.609-.14t-2.136-.168q-.557-.07-2.232-.366-1.675-.296-2.271-.509-.596-.214-2.697-1.24-2.101-1.027-3.113-1.888-1.012-.862-1.51-1.442-.498-.581-.981-1.19-.483-.61-1.397-1.909-.913-1.299-1-1.5-.087-.201-.554-.861-.467-.66-1.441-2.254-.974-1.594-1.488-2.537-.514-.943-1.036-1.84-.522-.897-.976-1.611-.454-.714-1.455-2.653-1.001-1.94-1.082-2.125-.081-.186-1.092-1.503-1.011-1.318-1.496-1.893-.485-.575-.755-.881-.271-.305-.016-.439.255-.133.085-.047-.17.086-.399.169-.229.083-.784.343t-.93.351q-.374.091-1.559.48-1.185.388-1.569.471-.383.083-1.957.549t-4.803 1.299q-3.229.833-5.93 1.157-2.701.324-5.204.314-2.503-.01-4.518-.025-2.015-.015-4.057-.052-2.042-.037-4.116-.134t-4.234-.331q-2.16-.234-3.559-.574-1.399-.34-2.913-.566-1.514-.226-4.553-.787-3.039-.56-3.384-.668-.345-.108-.654-.295-.309-.187-.565-.443-.255-.256-.442-.566-.187-.31-.294-.655-.107-.345-.129-.706-.021-.361.044-.717.066-.356.214-.685.149-.33.372-.614t.508-.507q.285-.223.615-.371t.686-.213q.356-.065.717-.043l.361.022M790.001 589v7.987l-.001 1.506q-.001.51-.232 1.821-.231 1.312-.297 1.74-.065.428-.112.859t-.082.881q-.036.45-.065.907-.029.457-.044.137-.015-.32.066.106t.344.652q.263.226.795.688.532.462 1.263.991.73.529 1.324 1.011.594.482 1.695 1.47t1.863 1.522q.762.533 2.222 1.533 1.46.999 2.651 1.976 1.191.977 1.994 1.513.803.536 1.759 1.489.957.953 2.324 2.987 1.367 2.035 2.166 3.015.798.981 1.491 2 .693 1.019 1.073 1.521t.898 1.628q.518 1.126.961 2.103.442.977.841 2.674.399 1.697.702 2.589.303.892.591 2.564.287 1.672.422 3.272.135 1.6.199 3.156t.095 3.086q.031 1.53.037 2.054l.02 2.015q.015 1.492.02 2.504.005 1.012.005 2.019v2.516q0 .5.005.985t.005 1l-.001 1.005q-.001.49.089.683.09.193.265.531.175.338.437.769.263.431.592.887.329.456 2.084 2.419 1.755 1.963 2.228 2.475.473.513 1.911 1.999 1.438 1.487 2.218 2.512t1.837 2.53q1.057 1.505 1.884 2.491.827.986 1.949 2.497t1.956 3.083q.834 1.573 1.847 3.573 1.013 2.001 1.664 3.565t1.563 3.526q.912 1.962 1.395 2.971.483 1.009.907 2.697.424 1.688.834 3.134t.76 2.381q.35.935.61 2.08.261 1.145.445 2.766.185 1.621.23 2.165.045.544.098 1.581.053 1.037.08 2.075.027 1.038.047 2.045.02 1.008.025 1.533.005.525-.214 1.834-.219 1.309-.281 1.744-.062.435-.344 1.302t-.362 1.196q-.08.329-.16.737-.081.408-.298.948-.217.54-.314.81t-.18.591q-.083.32-.167.71-.084.39-.18 1.22-.096.831-.164 1.755-.068.924-.111 1.874-.043.95-.062 1.446-.02.496-.039 1.462t.249 1.966q.268 1 .369 1.348.101.347.116.709.015.361-.057.716-.072.354-.227.681-.155.327-.383.607-.228.28-.517.498-.289.218-.621.36-.333.142-.689.2-.357.058-.717.03-.36-.029-.704-.143-.343-.114-.649-.307t-.557-.454q-.251-.261-.432-.574l-.181-.313-.509-2.239q-.509-2.24-.488-3.265.021-1.026.041-1.538.021-.512.069-1.552t.13-2.105q.082-1.065.226-2.176.144-1.111.271-1.671.127-.56.304-1.159t.409-1.164q.232-.565.175-.331-.057.234.053-.317t.272-1.144q.162-.593.297-.875.136-.282.216-.836.08-.554.248-1.286.168-.732.162-1.216-.005-.484-.025-1.476t-.044-1.955q-.024-.962-.071-1.907-.047-.944-.084-1.407-.037-.463-.173-1.782-.136-1.32-.279-2.057-.143-.737-.564-1.89-.421-1.153-.869-2.745t-.657-2.668q-.209-1.076-.704-2.104-.495-1.029-1.457-3.107-.963-2.078-1.518-3.434-.556-1.355-1.557-3.334-1.002-1.978-1.584-3.147-.582-1.169-1.597-2.542-1.015-1.373-1.99-2.554-.975-1.18-1.982-2.615-1.007-1.435-1.541-2.171-.534-.736-2.019-2.272-1.485-1.536-1.996-2.091-.511-.554-2.471-2.775t-2.43-2.895q-.47-.674-.886-1.403-.416-.729-.759-1.561-.343-.831-.52-1.727-.177-.896-.179-1.406l-.001-.995q0-.485-.005-1t-.005-1.015V656.993q0-.993-.005-1.989-.005-.997-.02-2.488l-.02-1.985q-.005-.494-.034-1.963-.029-1.47-.086-2.903-.057-1.434-.164-2.803-.107-1.369-.282-2.58t-.561-2.405q-.386-1.194-.59-2.3-.204-1.106-.679-2.155-.475-1.05-.629-1.539-.153-.49-.616-1.104-.463-.614-1.005-1.428-.542-.814-1.509-2.026-.967-1.212-2.001-2.829-1.035-1.617-1.511-2.162-.477-.545-1.497-1.244-1.02-.698-1.996-1.513t-2.486-1.849q-1.51-1.034-2.531-1.776-1.021-.742-2.011-1.635-.99-.893-1.482-1.295-.492-.402-1.509-1.174-1.017-.772-1.97-1.74-.953-.968-1.624-2.168-.671-1.2-.788-1.727-.117-.527-.152-.945-.035-.417-.003-.961.031-.543.076-1.083.044-.54.108-1.099.064-.559.151-1.11t.262-1.29q.175-.74.175-1.238l-.001-1.494v-6.004q0-1.983.044-2.342t.172-.697q.128-.338.334-.636.205-.298.476-.537.271-.24.591-.408.32-.168.671-.255.351-.087.713-.087t.713.087q.351.087.671.255.32.168.591.408.271.24.476.537.205.298.334.636.128.338.172.697l.044.359m-187.879 29.115-1.924 1.924q-1.924 1.924-2.942 2.939-1.018 1.016-3.561 2.549-2.543 1.534-4.486 3.178-1.943 1.644-2.458 2.096-.515.452-2.504 2.045-1.989 1.593-2.995 2.486-1.006.892-2.002 1.831-.996.939-1.49 1.417l-1.001.972q-.508.493-1.026 1.187-.518.694-1.045 1.519-.527.825-.614 1.043-.087.218-.288 1.298-.201 1.08-.386 3.826-.185 2.747-.239 4.201-.053 1.454-.088 3.91-.034 2.455.274 5.28.308 2.824.995 5.124.687 2.299 1.57 4.736t1.836 4.917q.953 2.48 1.716 3.902.763 1.422 1.286 2.433.524 1.011 1.643 3.537 1.12 2.526 1.718 4.078.598 1.552 2.04 5.011 1.442 3.458 2.021 5.013.58 1.554.911 3.233.331 1.678.609 2.554.279.876.647 1.809.369.934.711 2.621.342 1.688.535 4.33.193 2.642.225 3.166t.069 2.072q.037 1.548.058 3.063.02 1.515.031 3.523.01 2.008.015 3.515l.01 3.007q.005 1.5.005 2.515 0 1.015-.232 2.33-.231 1.315-.656 2.926-.425 1.611-.502 2.009-.077.398-.452 1.598-.376 1.2-.818 2.327-.442 1.127-.907 2.194-.464 1.067-.565 1.393-.101.326-.915 1.758-.814 1.432-.915 1.688-.101.255-.57 1.28-.469 1.024-.633 1.706-.164.682-.575 1.838-.411 1.156-.803 1.93-.392.774-.549 1.396-.157.622-.238.999-.081.377-.402 1.204t-.481 1.536q-.16.709-.271 1.532-.112.823-.188 1.729-.076.906-.373 2.176-.297 1.269-.37 1.67-.073.401-.166 1.271-.093.87-.136 1.341-.043.471-.339 1.73-.296 1.259-.414 2.09t-.167 1.276q-.049.445-.362 1.694-.313 1.249-.389 1.644-.076.395-.145.834-.069.439-.254.969-.185.531-.283.827-.098.297-.186.65-.088.353-.345.897-.258.544-.351.786-.094.242-.178.538-.085.296-.468 1.1t-.811 1.5q-.427.696-.902 1.342-.475.647-.627 1.146-.152.5-.816 2.192-.663 1.692-.784 2.033-.121.341-.32.643t-.465.547q-.266.246-.582.42-.317.175-.666.269-.349.094-.711.102-.362.008-.714-.071-.353-.079-.677-.24-.324-.161-.599-.395-.276-.234-.487-.527-.212-.293-.347-.629-.135-.335-.187-.693-.051-.358-.015-.718l.036-.36.811-2.164q.811-2.164 1.32-3.3.509-1.136.863-1.61.354-.474.646-.928.292-.454.496-.818.204-.363.4-.957.196-.593.461-1.167.265-.574.208-.365-.057.209.096-.367t.363-1.145q.21-.568.155-.314-.055.255.026-.277.081-.531.198-1.106.117-.574.35-1.396.233-.822.296-1.375.063-.553.236-1.663.174-1.11.394-1.922.22-.812.269-1.339.048-.527.175-1.619.126-1.092.236-1.66.11-.569.33-1.379.22-.81.315-1.883t.265-2.19q.17-1.117.47-2.252.301-1.135.467-1.476.167-.341.298-.912.132-.571.505-1.723.374-1.153.603-1.557.229-.404.566-1.326.337-.922.666-2.061.33-1.14.786-2.135.456-.996.723-1.573.267-.577.814-1.423.547-.846.741-1.42.194-.574.619-1.547t.801-1.916q.376-.943.667-1.813.29-.871.409-1.45t.5-2q.381-1.421.557-2.166.175-.745.175-1.738-.001-.994-.006-2.494l-.01-3.002q-.005-1.502-.015-3.485-.01-1.983-.03-3.468-.02-1.485-.052-2.92-.033-1.436-.063-1.935-.03-.5-.179-2.799-.149-2.3-.339-3.455-.19-1.156-.63-2.292-.44-1.137-.8-2.348-.36-1.211-.555-2.394-.194-1.183-.73-2.623-.536-1.44-2.009-4.977-1.473-3.537-2.014-4.951-.541-1.414-1.581-3.774-1.04-2.36-1.552-3.349-.512-.989-1.421-2.733-.909-1.744-1.885-4.284t-1.92-5.164q-.944-2.624-1.73-5.432-.786-2.808-1.112-5.995-.326-3.187-.29-5.714.036-2.528.095-4.088.059-1.561.306-4.727.246-3.166.654-4.86.407-1.694.697-2.284.29-.591.964-1.625.674-1.034 1.474-2.044.799-1.01 1.311-1.507l1.038-1.007q.526-.51 1.59-1.51 1.064-1.001 2.184-1.989 1.119-.988 3.006-2.496 1.887-1.508 2.459-2.009.572-.501 2.921-2.429 2.349-1.928 4.304-3.009 1.956-1.081 2.953-2.081l2.921-2.923q1.924-1.924 2.208-2.147.285-.223.614-.371.33-.148.685-.214.356-.065.717-.043.361.022.706.129.345.108.655.295.309.187.565.443.256.256.443.565.187.309.295.655.108.345.129.706.022.361-.043.717t-.214.685q-.148.33-.371.614l-.223.285" paint-order="stroke fill markers" style="mix-blend-mode:source-over"/></svg>
