<svg version="1.1" xmlns="http://www.w3.org/2000/svg" xmlns:xlink="http://www.w3.org/1999/xlink" width="24" height="24" viewBox="46 37 277 223">
<path style="fill: #000000; stroke: #000000; mix-blend-mode: source-over; paint-order: stroke fill markers; fill-opacity: 1; stroke-dasharray: none; stroke-dashoffset: 0; stroke-linecap: round; stroke-linejoin: round; stroke-miterlimit: 4; stroke-opacity: 1; stroke-width: 15;" d="M24.04 144.02 C24.04 144.02 24.04 144.02 24.04 144.02 24.04 144.02 24.04 144.02 24.04 144.02 24.04 144.02 24.04 144.02 24.04 144.02 24.04 144.02 23.303 143.827 22.95 143.75 22.621 143.678 22.321 143.664 21.99 143.57 21.617 143.464 21.211 143.298 20.83 143.12 20.437 142.936 20.06 142.766 19.67 142.48 19.189 142.127 18.667 141.595 18.21 141.09 17.738 140.568 17.309 139.977 16.89 139.39 16.465 138.795 16.003 138.238 15.68 137.54 15.32 136.761 15.092 135.715 14.9 134.9 14.738 134.214 14.716 133.629 14.56 132.98 14.395 132.293 14.068 131.452 13.92 130.89 13.821 130.517 13.773 130.267 13.71 129.95 13.646 129.63 13.631 129.361 13.54 128.98 13.405 128.414 13.057 127.461 12.91 126.9 12.812 126.524 12.767 126.356 12.7 125.95 12.582 125.242 12.449 123.896 12.37 123.01 12.305 122.283 12.275 121.684 12.24 121.02 12.205 120.354 12.182 119.687 12.16 119.02 12.138 118.353 12.123 117.687 12.11 117.02 12.097 116.353 12.154 115.688 12.08 115.02 12.004 114.335 11.766 113.711 11.65 112.96 11.512 112.068 11.425 110.998 11.35 110.01 11.275 109.018 11.238 107.917 11.2 107.02 11.169 106.287 11.149 105.801 11.13 105.02 11.104 103.916 11.092 102.125 11.08 101.02 11.071 100.239 11.065 99.754 11.06 99.02 11.054 98.121 11.051 96.919 11.05 96.02 11.049 95.286 11.05 94.687 11.05 94.02 11.05 93.353 11.052 92.687 11.05 92.02 11.048 91.353 11.042 90.687 11.04 90.02 11.038 89.353 11.106 88.688 11.04 88.02 10.972 87.338 10.737 86.649 10.63 85.97 10.525 85.309 10.463 84.658 10.4 84 10.337 83.341 10.288 82.682 10.25 82.02 10.212 81.355 10.192 80.687 10.17 80.02 10.148 79.353 10.132 78.572 10.12 78.02 10.111 77.629 10.135 77.213 10.1 77.02 10.085 76.938 10.065 76.93 10.04 76.85 9.984 76.666 9.871 76.241 9.8 75.93 9.728 75.614 9.665 75.292 9.61 74.97 9.555 74.646 9.553 74.325 9.47 73.99 9.378 73.62 9.226 73.227 9.06 72.85 8.886 72.456 8.666 72.063 8.44 71.68 8.21 71.29 7.927 70.813 7.69 70.53 7.527 70.336 7.407 70.294 7.22 70.09 6.878 69.716 6.296 68.889 5.89 68.39 5.562 67.986 5.289 67.665 4.98 67.31 4.672 66.955 4.365 66.71 4.04 66.26 3.563 65.599 2.842 64.268 2.53 63.63 2.36 63.283 2.292 63.085 2.19 62.8 2.085 62.508 2.034 62.259 1.91 61.9 1.719 61.349 1.325 60.511 1.12 59.83 0.929 59.195 0.802 58.475 0.7 57.95 0.627 57.575 0.588 57.305 0.54 56.98 0.492 56.655 0.447 56.328 0.41 56 0.373 55.671 0.348 55.397 0.32 55.01 0.28 54.462 0.236 53.57 0.21 53.02 0.191 52.63 0.183 52.411 0.17 52.02 0.152 51.468 0.132 50.572 0.12 50.02 0.111 49.629 0.107 49.411 0.1 49.02 0.09 48.468 0.077 47.687 0.07 47.02 0.063 46.353 0.061 45.572 0.06 45.02 0.059 44.629 0.061 44.411 0.06 44.02 0.059 43.468 0.052 42.687 0.05 42.02 0.048 41.353 0.053 40.572 0.05 40.02 0.048 39.629 0.042 39.443 0.04 39.02 0.036 38.288 0.04 36.752 0.04 36.02 0.04 35.597 0.04 35.411 0.04 35.02 0.04 34.468 0.04 33.687 0.04 33.02 0.04 32.353 0.04 31.687 0.04 31.02 0.04 30.353 0.04 29.687 0.04 29.02 0.04 28.353 0.04 27.687 0.04 27.02 0.04 26.353 0.04 25.572 0.04 25.02 0.04 24.629 0.04 24.443 0.04 24.02 0.04 23.288 -0.052 21.766 0.04 21.02 0.096 20.566 0.226 20.392 0.31 19.94 0.447 19.204 0.59 17.72 0.67 17 0.717 16.583 0.74 16.429 0.77 16.01 0.823 15.282 0.779 13.92 0.9 13.02 1.002 12.262 1.246 11.632 1.37 10.95 1.49 10.293 1.505 9.559 1.64 9 1.746 8.56 1.898 8.12 2.04 7.85 2.127 7.684 2.218 7.63 2.31 7.48 2.436 7.274 2.542 6.988 2.7 6.71 2.899 6.361 3.218 5.995 3.43 5.56 3.675 5.058 3.857 4.208 4.04 3.85 4.132 3.67 4.228 3.53 4.3 3.47 4.333 3.442 4.345 3.455 4.39 3.43 4.559 3.337 5.155 2.935 5.53 2.67 5.909 2.402 6.307 2.047 6.65 1.83 6.915 1.662 7.131 1.558 7.39 1.44 7.66 1.317 7.949 1.207 8.24 1.11 8.538 1.01 8.85 0.926 9.16 0.85 9.473 0.773 9.791 0.71 10.11 0.65 10.431 0.59 10.755 0.535 11.08 0.49 11.405 0.445 11.676 0.415 12.06 0.38 12.607 0.33 13.5 0.276 14.05 0.24 14.44 0.215 14.849 0.222 15.05 0.18 15.14 0.161 15.142 0.128 15.24 0.11 15.532 0.055 16.424 0.088 17.04 0.08 17.689 0.071 18.488 0.066 19.04 0.06 19.431 0.056 19.617 0.053 20.04 0.05 20.772 0.045 22.137 -0.045 23.04 0.04 23.795 0.111 24.42 0.334 25.1 0.44 25.76 0.543 26.401 0.542 27.06 0.67 27.75 0.804 28.463 1.092 29.15 1.24 29.802 1.381 30.429 1.402 31.08 1.55 31.768 1.707 32.411 1.938 33.17 2.17 34.083 2.45 35.275 2.801 36.18 3.12 36.939 3.388 37.496 3.645 38.25 3.93 39.149 4.269 40.325 4.66 41.22 5.01 41.97 5.304 42.586 5.505 43.27 5.87 44.026 6.274 44.809 6.914 45.54 7.37 46.201 7.783 46.815 8.132 47.46 8.5 48.105 8.868 48.756 9.227 49.41 9.58 50.066 9.934 50.729 10.275 51.39 10.62 52.052 10.965 52.815 11.322 53.38 11.65 53.82 11.906 54.167 12.195 54.52 12.39 54.804 12.547 55.033 12.607 55.32 12.76 55.676 12.95 56.041 13.213 56.48 13.47 57.041 13.799 57.775 14.28 58.42 14.56 59.008 14.815 59.66 14.91 60.18 15.12 60.617 15.297 60.908 15.481 61.35 15.7 61.928 15.986 62.815 16.463 63.35 16.69 63.694 16.836 63.914 16.865 64.22 17 64.587 17.161 64.948 17.388 65.39 17.62 65.965 17.921 66.85 18.414 67.38 18.65 67.717 18.8 67.923 18.795 68.23 18.97 68.672 19.222 69.178 19.837 69.7 20.15 70.2 20.45 70.733 20.641 71.29 20.83 71.874 21.028 72.592 21.115 73.13 21.3 73.571 21.451 73.917 21.614 74.3 21.81 74.694 22.012 75.021 22.248 75.46 22.5 76.024 22.824 76.756 23.227 77.41 23.58 78.066 23.934 78.862 24.38 79.39 24.62 79.727 24.773 79.897 24.845 80.24 24.95 80.738 25.102 81.474 25.193 82.11 25.37 82.792 25.56 83.51 25.816 84.2 26.07 84.893 26.325 85.507 26.678 86.26 26.9 87.12 27.154 88.233 27.227 89.1 27.45 89.854 27.644 90.496 27.948 91.18 28.12 91.825 28.282 92.558 28.383 93.09 28.47 93.47 28.532 93.735 28.527 94.07 28.61 94.44 28.702 94.847 28.908 95.21 29.02 95.533 29.12 95.827 29.189 96.14 29.26 96.456 29.332 96.722 29.353 97.1 29.45 97.664 29.595 98.492 29.865 99.18 30.11 99.875 30.358 100.696 30.742 101.25 30.93 101.611 31.053 101.852 31.114 102.16 31.19 102.472 31.267 102.735 31.289 103.11 31.39 103.673 31.542 104.63 31.919 105.19 32.08 105.562 32.187 105.758 32.2 106.13 32.31 106.691 32.477 107.522 32.779 108.21 33.04 108.902 33.302 109.72 33.683 110.27 33.88 110.628 34.008 110.855 34.036 111.17 34.16 111.539 34.305 111.898 34.505 112.34 34.72 112.921 35.002 113.813 35.483 114.35 35.71 114.695 35.856 114.913 35.886 115.22 36.02 115.586 36.18 116.008 36.406 116.39 36.63 116.778 36.858 117.099 37.163 117.53 37.38 118.026 37.63 118.715 37.775 119.22 38 119.653 38.193 120.027 38.454 120.39 38.62 120.692 38.758 120.939 38.811 121.24 38.95 121.604 39.118 121.969 39.344 122.41 39.58 122.983 39.886 123.729 40.284 124.39 40.63 125.049 40.974 125.806 41.324 126.37 41.65 126.812 41.905 127.039 42.17 127.52 42.39 128.203 42.703 129.337 42.893 130.16 43.17 130.9 43.419 131.632 43.611 132.24 43.96 132.799 44.281 133.115 44.813 133.7 45.14 134.397 45.53 135.574 45.835 136.21 46.03 136.592 46.147 136.771 46.157 137.14 46.27 137.699 46.441 138.533 46.744 139.22 47.01 139.91 47.277 140.689 47.583 141.27 47.87 141.722 48.093 142.078 48.363 142.44 48.54 142.735 48.684 142.975 48.736 143.27 48.88 143.63 49.055 144.069 49.365 144.43 49.54 144.727 49.684 145.048 49.752 145.27 49.88 145.436 49.975 145.506 50.057 145.67 50.19 145.943 50.411 146.385 50.794 146.74 51.1 147.095 51.407 147.534 51.742 147.8 52.03 147.992 52.238 148.094 52.363 148.24 52.62 148.466 53.018 148.665 53.678 148.91 54.25 149.186 54.894 149.61 55.747 149.82 56.29 149.955 56.64 150.019 56.817 150.11 57.17 150.242 57.681 150.372 58.437 150.47 59.08 150.569 59.727 150.646 60.495 150.7 61.04 150.738 61.428 150.754 61.65 150.78 62.04 150.817 62.59 150.864 63.48 150.89 64.03 150.909 64.42 150.918 64.639 150.93 65.03 150.947 65.582 150.959 66.478 150.97 67.03 150.978 67.421 150.985 67.697 150.99 68.03 150.995 68.363 150.997 68.697 151 69.03 151.003 69.363 151.007 69.697 151.01 70.03 151.013 70.363 151.056 70.64 151.02 71.03 150.968 71.594 150.717 72.521 150.62 73.08 150.553 73.465 150.512 73.733 150.47 74.06 150.428 74.386 150.4 74.712 150.37 75.04 150.34 75.369 150.354 75.643 150.29 76.03 150.196 76.599 149.893 77.546 149.77 78.11 149.687 78.493 149.643 78.756 149.59 79.08 149.537 79.403 149.514 79.83 149.45 80.05 149.415 80.171 149.377 80.203 149.33 80.32 149.247 80.526 149.153 80.883 149.02 81.19 148.862 81.556 148.581 81.996 148.42 82.36 148.286 82.664 148.196 82.927 148.1 83.22 148.002 83.517 147.958 83.812 147.84 84.13 147.702 84.501 147.446 84.934 147.3 85.3 147.176 85.611 147.13 85.871 147 86.18 146.846 86.547 146.629 86.967 146.41 87.35 146.186 87.741 145.932 88.124 145.67 88.5 145.405 88.881 145.118 89.252 144.83 89.62 144.541 89.989 144.242 90.351 143.94 90.71 143.639 91.068 143.333 91.421 143.02 91.77 142.706 92.121 142.304 92.489 142.06 92.81 141.877 93.051 141.795 93.296 141.64 93.49 141.502 93.662 141.332 93.763 141.19 93.93 141.033 94.115 140.958 94.321 140.75 94.56 140.408 94.954 139.685 95.551 139.23 95.98 138.855 96.333 138.5 96.568 138.21 96.95 137.899 97.359 137.681 98.052 137.45 98.38 137.312 98.577 137.22 98.637 137.06 98.81 136.81 99.08 136.414 99.498 136.09 99.84 135.767 100.181 135.421 100.601 135.12 100.86 134.898 101.051 134.726 101.125 134.49 101.3 134.171 101.536 133.808 101.911 133.39 102.16 132.924 102.437 132.282 102.607 131.8 102.85 131.376 103.063 131 103.341 130.64 103.52 130.345 103.667 130.095 103.767 129.81 103.87 129.519 103.975 129.215 104.059 128.91 104.14 128.601 104.222 128.342 104.292 127.97 104.36 127.437 104.457 126.666 104.55 126.01 104.62 125.353 104.69 124.694 104.671 124.03 104.78 123.341 104.893 122.512 105.177 121.95 105.3 121.57 105.383 121.368 105.386 120.99 105.48 120.424 105.621 119.462 105.977 118.9 106.13 118.527 106.231 118.276 106.287 117.96 106.35 117.643 106.414 117.33 106.419 117 106.51 116.627 106.612 116.206 106.839 115.84 106.96 115.521 107.065 115.238 107.135 114.93 107.21 114.618 107.286 114.308 107.309 113.98 107.41 113.607 107.525 113.259 107.748 112.82 107.89 112.279 108.065 111.481 108.223 110.96 108.33 110.586 108.407 110.398 108.38 109.99 108.5 109.225 108.726 107.54 109.578 106.8 109.85 106.416 109.991 106.266 110.005 105.91 110.13 105.361 110.324 104.595 110.657 103.84 110.94 102.939 111.278 101.757 111.661 100.86 112.01 100.109 112.302 99.485 112.648 98.81 112.87 98.186 113.075 97.591 113.135 96.96 113.32 96.28 113.519 95.559 113.779 94.87 114.04 94.179 114.302 93.495 114.672 92.82 114.89 92.193 115.093 91.653 115.149 90.96 115.33 90.068 115.563 88.831 115.901 87.92 116.2 87.159 116.45 86.535 116.696 85.85 116.97 85.162 117.246 84.349 117.647 83.8 117.85 83.443 117.982 83.258 118.004 82.9 118.13 82.351 118.323 81.523 118.657 80.84 118.94 80.153 119.224 79.539 119.525 78.79 119.83 77.9 120.192 76.738 120.497 75.84 120.95 75.01 121.369 74.383 121.959 73.57 122.41 72.696 122.895 71.703 123.242 70.75 123.74 69.728 124.274 68.571 124.912 67.64 125.53 66.821 126.074 66.229 126.702 65.43 127.21 64.589 127.745 63.358 128.345 62.7 128.64 62.343 128.8 62.193 128.822 61.85 128.96 61.313 129.176 60.48 129.538 59.8 129.84 59.12 130.142 58.368 130.384 57.77 130.77 57.211 131.13 56.826 131.638 56.3 132.05 55.741 132.487 55.022 132.924 54.5 133.31 54.084 133.618 53.821 133.868 53.4 134.17 52.87 134.55 52.171 135.068 51.55 135.38 50.99 135.661 50.45 135.711 49.86 136 49.139 136.353 48.312 136.99 47.58 137.43 46.914 137.83 46.203 138.192 45.65 138.54 45.214 138.814 44.941 139.094 44.51 139.32 44.019 139.577 43.424 139.666 42.84 139.96 42.124 140.321 41.142 141.097 40.57 141.41 40.243 141.589 40.057 141.628 39.77 141.78 39.414 141.969 38.969 142.296 38.61 142.48 38.319 142.629 38.008 142.7 37.79 142.83 37.625 142.929 37.548 143.043 37.39 143.15 37.188 143.286 36.916 143.437 36.66 143.56 36.394 143.688 35.82 143.9 35.82 143.9 " transform="matrix(1,0,0,1,100.9585737,79.9792734)"/>
<path style="fill: #000000; stroke: #000000; mix-blend-mode: source-over; paint-order: stroke fill markers; fill-opacity: 1; stroke-dasharray: none; stroke-dashoffset: 0; stroke-linecap: round; stroke-linejoin: round; stroke-miterlimit: 4; stroke-opacity: 1; stroke-width: 15;" d="M0 45.1 C0 45.1 0 45.1 0 45.1 0 45.1 0 45.1 0 45.1 0 45.1 0.31 44.878 0.5 44.77 0.73 44.64 0.966 44.511 1.29 44.39 1.766 44.212 2.578 44.083 3.11 43.89 3.547 43.731 3.905 43.504 4.27 43.36 4.583 43.236 4.858 43.148 5.16 43.06 5.465 42.971 5.722 42.94 6.09 42.83 6.649 42.663 7.611 42.27 8.17 42.1 8.539 41.988 8.787 41.932 9.1 41.86 9.414 41.788 9.722 41.767 10.05 41.67 10.422 41.56 10.844 41.335 11.21 41.21 11.529 41.102 11.758 41.034 12.12 40.95 12.639 40.83 13.393 40.7 14.04 40.61 14.693 40.519 15.457 40.529 16.02 40.41 16.455 40.318 16.79 40.143 17.15 40.04 17.473 39.947 17.766 39.876 18.08 39.81 18.399 39.743 18.718 39.733 19.05 39.64 19.422 39.536 19.835 39.313 20.2 39.19 20.521 39.082 20.81 39.006 21.12 38.93 21.433 38.853 21.751 38.79 22.07 38.73 22.391 38.67 22.82 38.64 23.04 38.57 23.161 38.532 23.193 38.49 23.31 38.44 23.516 38.353 23.873 38.257 24.18 38.12 24.546 37.956 24.986 37.664 25.35 37.5 25.651 37.364 25.91 37.276 26.2 37.18 26.496 37.082 26.883 37.021 27.11 36.92 27.26 36.853 27.316 36.777 27.46 36.7 27.671 36.587 27.981 36.491 28.27 36.34 28.627 36.154 29.051 35.889 29.43 35.64 29.812 35.389 30.27 35.09 30.55 34.84 30.746 34.665 30.83 34.493 31 34.34 31.178 34.179 31.371 34.108 31.6 33.9 31.985 33.552 32.576 32.806 33 32.34 33.349 31.957 33.714 31.619 33.96 31.3 34.145 31.061 34.219 30.879 34.39 30.63 34.615 30.301 34.994 29.853 35.21 29.51 35.379 29.241 35.448 29.071 35.61 28.76 35.873 28.256 36.396 27.302 36.63 26.77 36.78 26.429 36.848 26.256 36.95 25.91 37.097 25.408 37.26 24.555 37.36 24.03 37.432 23.655 37.47 23.441 37.52 23.06 37.591 22.519 37.665 21.637 37.71 21.09 37.742 20.701 37.758 20.423 37.78 20.09 37.802 19.759 37.866 19.434 37.84 19.1 37.813 18.751 37.674 18.386 37.61 18.04 37.549 17.71 37.527 17.293 37.46 17.07 37.422 16.945 37.397 16.912 37.33 16.79 37.19 16.534 36.857 16.017 36.6 15.64 36.341 15.26 36.037 14.799 35.78 14.52 35.599 14.323 35.462 14.249 35.26 14.07 34.971 13.813 34.565 13.438 34.22 13.12 33.875 12.802 33.507 12.406 33.19 12.16 32.952 11.975 32.758 11.861 32.52 11.73 32.27 11.593 32.006 11.513 31.72 11.36 31.366 11.171 31.006 10.915 30.57 10.66 30.008 10.332 29.177 9.915 28.62 9.57 28.182 9.299 27.863 9.117 27.48 8.79 27.011 8.39 26.573 7.759 26.06 7.29 25.535 6.81 24.858 6.358 24.36 5.95 23.959 5.621 23.643 5.348 23.29 5.04 22.936 4.731 22.588 4.416 22.24 4.1 21.891 3.783 21.553 3.521 21.2 3.14 20.764 2.67 20.224 1.819 19.86 1.45 19.653 1.24 19.484 1.175 19.32 1.01 19.153 0.842 19.037 0.619 18.87 0.45 18.704 0.282 18.32 0 18.32 0 " transform="matrix(1,0,0,1,233.9985081,131.8986951)"/>
<path style="fill: none; stroke: #000000; mix-blend-mode: source-over; stroke-dasharray: none; stroke-dashoffset: 0; stroke-linecap: round; stroke-linejoin: round; stroke-miterlimit: 4; stroke-opacity: 1; stroke-width: 15;" d="M0 5.96 C0 5.96 0 5.96 0 5.96 0 5.96 0 5.96 0 5.96 0 5.96 0 5.96 0 5.96 0 5.96 0.078 5.931 0.15 5.91 0.328 5.859 0.774 5.748 1.09 5.68 1.407 5.611 1.728 5.552 2.05 5.5 2.374 5.448 2.702 5.408 3.03 5.37 3.359 5.332 3.69 5.3 4.02 5.27 4.35 5.24 4.68 5.213 5.01 5.19 5.34 5.167 5.669 5.147 6 5.13 6.332 5.113 6.661 5.143 7 5.09 7.364 5.033 7.753 4.867 8.11 4.78 8.438 4.7 8.732 4.681 9.06 4.58 9.433 4.465 9.854 4.23 10.22 4.1 10.539 3.987 10.823 3.91 11.13 3.83 11.439 3.75 11.753 3.683 12.07 3.62 12.39 3.556 12.818 3.523 13.04 3.45 13.165 3.409 13.199 3.362 13.32 3.31 13.526 3.222 13.887 3.093 14.18 3 14.48 2.905 14.789 2.825 15.1 2.75 15.415 2.674 15.738 2.607 16.06 2.55 16.382 2.493 16.697 2.494 17.03 2.41 17.402 2.316 17.816 2.106 18.18 1.99 18.501 1.888 18.78 1.855 19.1 1.74 19.472 1.606 19.904 1.355 20.27 1.21 20.581 1.087 20.841 1.04 21.15 0.91 21.517 0.756 21.955 0.479 22.32 0.32 22.627 0.186 23.19 0 23.19 0 23.19 0 23.19 0 23.19 0 " transform="matrix(1,0,0,1,228.9978934,175.0396643)"/>
<path style="fill: none; stroke: #000000; mix-blend-mode: source-over; stroke-dasharray: none; stroke-dashoffset: 0; stroke-linecap: round; stroke-linejoin: round; stroke-miterlimit: 4; stroke-opacity: 1; stroke-width: 15;" d="M7.45 22.65 C7.45 22.65 7.45 22.65 7.45 22.65 7.45 22.65 7.45 22.65 7.45 22.65 7.45 22.65 7.45 22.65 7.45 22.65 7.45 22.65 7.45 22.65 7.45 22.65 7.45 22.65 6.95 22.31 6.95 22.31 6.95 22.31 6.95 22.31 6.95 22.31 6.95 22.31 6.4 22.2 6.4 22.2 6.4 22.2 6.4 22.2 6.4 22.2 6.4 22.2 5.94 21.571 5.89 21.28 5.849 21.046 5.936 20.893 6 20.61 6.115 20.104 6.379 19.211 6.61 18.52 6.842 17.824 7.187 17.13 7.39 16.45 7.58 15.815 7.638 15.115 7.81 14.57 7.949 14.13 8.102 13.791 8.29 13.41 8.484 13.017 8.783 12.61 8.96 12.25 9.105 11.955 9.156 11.715 9.3 11.42 9.477 11.058 9.793 10.612 9.97 10.25 10.114 9.955 10.239 9.757 10.31 9.42 10.41 8.946 10.467 8.03 10.36 7.64 10.301 7.425 10.188 7.326 10.07 7.18 9.942 7.021 9.785 6.87 9.61 6.73 9.416 6.575 9.184 6.431 8.95 6.3 8.705 6.163 8.432 6 8.17 5.93 7.929 5.865 7.561 5.86 7.44 5.87 7.4 5.873 7.394 5.875 7.36 5.89 7.284 5.922 7.02 6.1 7.02 6.1 7.02 6.1 7.02 6.1 7.02 6.1 7.02 6.1 7.046 6.521 7.09 6.67 7.12 6.773 7.165 6.809 7.21 6.92 7.291 7.122 7.414 7.501 7.5 7.8 7.588 8.104 7.702 8.419 7.73 8.73 7.757 9.035 7.799 9.321 7.67 9.65 7.474 10.151 6.821 10.802 6.33 11.31 5.841 11.815 5.285 12.334 4.73 12.69 4.231 13.01 3.628 13.224 3.18 13.4 2.85 13.53 2.3 13.69 2.3 13.69 2.3 13.69 2.3 13.69 2.3 13.69 2.3 13.69 1.745 13.226 1.5 12.84 1.136 12.266 0.795 11.287 0.55 10.44 0.29 9.542 0.064 8.552 0.01 7.59 -0.045 6.619 0.088 5.532 0.23 4.64 0.351 3.881 0.618 3.122 0.74 2.56 0.822 2.18 0.843 1.823 0.92 1.6 0.964 1.471 1.015 1.434 1.07 1.31 1.162 1.101 1.268 0.674 1.39 0.45 1.479 0.287 1.602 0.126 1.68 0.06 1.718 0.029 1.724 0.019 1.78 0.01 1.999 -0.026 2.957 0.056 3.48 0.24 3.992 0.42 4.563 0.834 4.89 1.09 5.091 1.247 5.33 1.53 5.33 1.53 5.33 1.53 5.33 1.53 5.33 1.53 5.33 1.53 5.392 1.695 5.43 1.82 5.498 2.041 5.581 2.522 5.68 2.75 5.744 2.897 5.89 3.09 5.89 3.09 " transform="matrix(1,0,0,1,125.5475608,202.3532124)"/>
</svg>