<svg version="1.1" xmlns="http://www.w3.org/2000/svg" width="24" height="24" viewBox="0 0 369 297">
<path style="fill: none; stroke: #000000; mix-blend-mode: source-over; stroke-dasharray: none; stroke-dashoffset: 0; stroke-linecap: round; stroke-linejoin: round; stroke-miterlimit: 4; stroke-opacity: 1; stroke-width: 28;" d="M0 0.46 C0 0.46 0 0.46 0 0.46 0 0.46 1.126 0.126 2.06 0.05 3.987 -0.106 7.363 0.144 11 0.36 16.715 0.699 25.436 1.722 33.01 2.21 41.071 2.729 47.98 2.761 58 3.33 73.144 4.19 100.651 6.692 115.01 7.25 123.713 7.588 129.975 7.408 136 7.44 140.555 7.464 143.92 7.457 148 7.46 152.247 7.464 156.848 7.46 161 7.46 164.82 7.46 168.519 7.605 172 7.46 175.156 7.329 178.097 6.997 181.01 6.71 183.761 6.439 186.663 5.983 189.02 5.8 190.873 5.656 192.548 5.755 194 5.59 195.146 5.459 196.142 5.158 197.05 5.02 197.776 4.91 198.475 4.844 199.02 4.79 199.406 4.752 199.679 4.733 200.01 4.71 200.342 4.687 201.01 4.65 201.01 4.65 " transform="matrix(1,0,0,1,89,65.53894483005716)"/>
<path style="fill: none; stroke: #000000; mix-blend-mode: source-over; stroke-dasharray: none; stroke-dashoffset: 0; stroke-linecap: round; stroke-linejoin: round; stroke-miterlimit: 4; stroke-opacity: 1; stroke-width: 28;" d="M0 0.02 C0 0.02 0.519 -0.028 1 0.02 2.291 0.148 5.354 0.855 8.06 1.43 11.743 2.212 16.194 3.542 21.07 4.36 27.201 5.388 34.589 5.988 42.02 6.69 50.441 7.486 60.18 8.41 69.01 8.79 77.494 9.155 85.935 8.962 94 9 101.567 9.035 109.146 9.359 116 9.02 122.042 8.722 128.085 7.622 133.01 7.32 136.775 7.089 139.857 7.279 143 7.09 145.821 6.92 148.339 6.475 151.01 6.31 153.672 6.146 156.336 6.145 159 6.1 161.666 6.055 164.791 6.051 167 6.04 168.562 6.032 170.111 6.031 171 6.03 171.444 6.029 171.667 6.03 172 6.03 172.333 6.03 172.609 6.069 173 6.03 173.566 5.973 174.38 5.719 175.06 5.61 175.719 5.504 176.363 5.442 177.02 5.38 177.68 5.318 178.461 5.276 179.01 5.24 179.397 5.215 179.663 5.238 180 5.18 180.365 5.118 180.694 4.957 181.12 4.86 181.671 4.734 183.04 4.53 183.04 4.53 " transform="matrix(1,0,0,1,92,134.97883468086044)"/>
<path style="fill: none; stroke: #000000; mix-blend-mode: source-over; stroke-dasharray: none; stroke-dashoffset: 0; stroke-linecap: round; stroke-linejoin: round; stroke-miterlimit: 4; stroke-opacity: 1; stroke-width: 28;" d="M0 7.64 C0 7.64 0 7.64 0 7.64 0 7.64 0.507 7.64 1 7.64 2.393 7.64 5.963 7.64 9 7.64 13.018 7.64 17.979 7.755 23 7.64 28.852 7.506 35.438 7.2 42 6.77 49.071 6.306 56.671 5.387 64.01 4.89 71.337 4.394 79.037 4.156 86 3.79 92.301 3.459 98.176 3.138 104 2.8 109.493 2.481 114.592 2.011 120.01 1.82 125.587 1.623 131.95 1.688 137 1.66 141.064 1.637 144.421 1.643 148 1.64 151.413 1.637 154.963 1.64 158 1.64 160.541 1.64 162.991 1.64 165 1.64 166.519 1.64 167.762 1.64 169 1.64 170.072 1.64 170.928 1.64 172 1.64 173.238 1.64 174.89 1.749 176 1.64 176.804 1.561 177.5 1.329 178.06 1.23 178.443 1.162 178.705 1.123 179.03 1.08 179.358 1.036 179.682 1.044 180.02 0.97 180.391 0.889 180.688 0.706 181.16 0.59 181.896 0.409 183.332 0.221 184.04 0.12 184.452 0.061 185.02 0 185.02 0 " transform="matrix(1,0,0,1,98,219.36272523187623)"/>
</svg>