<svg version="1.1" xmlns="http://www.w3.org/2000/svg" width="24" height="24" viewBox="0 0 369 297">
<path style="fill: none; stroke: #000000; mix-blend-mode: source-over; stroke-dasharray: none; stroke-dashoffset: 0; stroke-linecap: round; stroke-linejoin: round; stroke-miterlimit: 4; stroke-opacity: 1; stroke-width: 28;" d="M6.02 153.02 C6.02 153.02 6.02 153.02 6.02 153.02 6.02 153.02 7.919 152.43 9.17 151.97 11.063 151.274 13.641 150.316 16.23 149.13 19.55 147.61 23.323 145.548 27.35 143.39 32.227 140.776 37.953 137.429 43.39 134.47 48.956 131.441 54.665 128.662 60.37 125.43 66.344 122.046 72.399 118.069 78.44 114.56 84.409 111.092 91.294 107.433 96.4 104.49 100.242 102.276 103.243 100.167 106.43 98.55 109.154 97.168 112.72 96.149 114.26 95.2 114.992 94.749 115.284 94.348 115.73 93.96 116.112 93.628 116.458 93.263 116.78 93.02 117.023 92.836 117.173 92.762 117.46 92.59 117.938 92.303 118.993 91.789 119.4 91.49 119.611 91.335 119.672 91.211 119.84 91.08 120.032 90.93 120.206 90.868 120.5 90.65 121.179 90.147 122.664 88.785 123.72 87.95 124.698 87.177 125.728 86.595 126.61 85.8 127.479 85.016 128.521 83.815 128.98 83.22 129.199 82.936 129.209 82.831 129.41 82.55 129.787 82.024 130.553 80.992 131.15 80.37 131.67 79.827 132.19 79.544 132.75 78.98 133.475 78.251 134.526 76.792 135.06 76.29 135.302 76.062 135.64 75.85 135.64 75.85 135.64 75.85 135.64 75.85 135.64 75.85 135.64 75.85 135.598 75.726 135.51 75.62 135.159 75.197 133.506 73.918 132.32 72.94 130.849 71.727 129.057 70.414 127.34 68.91 125.365 67.18 123.365 65.186 121.19 63.08 118.677 60.647 115.903 57.865 113.15 55.13 110.229 52.229 107.053 49.05 104.14 46.14 101.393 43.396 98.765 40.462 96.14 38.14 93.855 36.118 91.754 34.567 89.38 32.86 86.892 31.072 84.248 29.357 81.52 27.67 78.668 25.906 75.473 24.355 72.61 22.52 69.79 20.712 66.989 18.348 64.46 16.75 62.391 15.442 60.485 14.659 58.63 13.48 56.819 12.329 54.937 10.672 53.45 9.77 52.414 9.141 51.627 8.885 50.69 8.37 49.68 7.816 48.622 7.164 47.6 6.54 46.576 5.914 45.563 5.075 44.55 4.62 43.664 4.222 42.731 4.206 41.9 3.85 41.086 3.502 40.191 2.806 39.61 2.52 39.272 2.353 39.065 2.282 38.78 2.18 38.488 2.075 38.239 1.988 37.88 1.9 37.365 1.773 36.613 1.643 35.97 1.55 35.32 1.456 34.545 1.391 34 1.34 33.614 1.304 33.451 1.286 33.01 1.26 32.124 1.209 30.247 1.152 29.01 1.12 27.941 1.092 26.768 1.173 26.02 1.07 25.559 1.006 25.275 0.862 24.92 0.78 24.59 0.704 24.282 0.645 23.96 0.59 23.636 0.535 23.364 0.494 22.98 0.45 22.436 0.388 21.661 0.327 21 0.28 20.338 0.233 19.674 0.198 19.01 0.17 18.344 0.142 17.676 0.127 17.01 0.11 16.346 0.093 15.57 0.078 15.02 0.07 14.63 0.064 14.353 0.063 14.02 0.06 13.687 0.057 13.372 -0.064 13.02 0.05 12.524 0.21 11.999 0.6 11.42 1.23 10.31 2.438 8.533 5.197 7.59 7.46 6.612 9.806 6.242 12.371 5.73 15.1 5.152 18.181 4.686 21.565 4.41 25.04 4.108 28.84 4.153 33.025 4.09 37.02 4.027 41.018 4.175 45.022 4.03 49.02 3.885 53.022 3.379 57.2 3.22 61.02 3.075 64.503 3.091 67.774 3.06 71.02 3.03 74.099 3.161 77.022 3.03 80.02 2.898 83.025 2.428 86.026 2.27 89.03 2.112 92.026 2.252 95.113 2.08 98.02 1.917 100.77 1.462 103.448 1.3 106.03 1.149 108.437 1.259 110.691 1.1 113.02 0.94 115.358 0.499 117.889 0.34 120.03 0.206 121.832 0.182 123.73 0.14 125.02 0.113 125.836 0.103 126.353 0.09 127.02 0.077 127.687 0.068 128.353 0.06 129.02 0.052 129.687 0.045 130.353 0.04 131.02 0.035 131.687 0.032 132.353 0.03 133.02 0.028 133.687 -0.03 134.286 0.03 135.02 0.104 135.93 0.425 137.325 0.53 138.06 0.59 138.476 0.613 138.656 0.65 139.04 0.703 139.587 0.754 140.481 0.79 141.03 0.815 141.417 0.833 141.689 0.85 142.02 0.867 142.352 0.89 143.02 0.89 143.02 " transform="matrix(1,0,0,1,70.98422814227416,67.9827826109333)"/>
<path style="fill: none; stroke: #000000; mix-blend-mode: source-over; stroke-dasharray: none; stroke-dashoffset: 0; stroke-linecap: round; stroke-linejoin: round; stroke-miterlimit: 4; stroke-opacity: 1; stroke-width: 28;" d="M3.06 0 C3.06 0 3.033 0.061 3.01 0.15 2.848 0.787 1.89 5.403 1.59 8.05 1.291 10.686 1.385 12.978 1.21 16 0.978 20.014 0.449 25.183 0.26 30.01 0.058 35.161 0.122 40.669 0.09 46 0.058 51.332 -0.077 56.846 0.07 62 0.208 66.827 0.731 71.426 0.89 76.01 1.043 80.42 0.811 85.497 1.03 89 1.18 91.392 1.574 93.218 1.72 95.02 1.838 96.481 1.863 97.671 1.91 99 1.957 100.331 1.986 102.111 2 103 2.007 103.444 1.974 103.557 2.01 104 2.082 104.895 2.477 106.688 2.62 108.03 2.762 109.358 2.81 110.682 2.87 112.01 2.93 113.339 2.959 115.113 2.98 116 2.991 116.444 2.995 116.667 3 117 3.005 117.333 2.971 117.578 3.01 118 3.079 118.741 3.418 120.03 3.55 121.04 3.68 122.033 3.738 123.118 3.8 124.01 3.851 124.739 3.882 125.336 3.91 126 3.938 126.666 3.955 127.333 3.97 128 3.985 128.667 3.99 129.219 4 130 4.014 131.105 3.944 132.594 4.04 134 4.148 135.581 4.533 137.347 4.68 139.02 4.826 140.68 4.88 142.973 4.92 144 4.938 144.46 4.939 144.609 4.95 145 4.965 145.552 5 147 5 147 5 147 5 147 5 147 " transform="matrix(1,0,0,1,268.93964335670546,71)"/>
</svg>