<svg version="1.1" xmlns="http://www.w3.org/2000/svg" xmlns:xlink="http://www.w3.org/1999/xlink" width="24" height="24" viewBox="0 0 369 297">
<path style="fill: none; stroke: #000000; mix-blend-mode: source-over; stroke-dasharray: none; stroke-dashoffset: 0; stroke-linecap: round; stroke-linejoin: round; stroke-miterlimit: 4; stroke-opacity: 1; stroke-width: 28;" d="M0 0 C0 0 0 0 0 0 0 0 3.813 0.697 6.07 1.35 9.036 2.209 12.429 3.607 16.18 4.98 20.911 6.711 26.623 8.885 32.19 10.95 38.251 13.198 44.768 15.644 51.19 17.96 57.758 20.328 64.419 22.677 71.17 25 78.072 27.375 85.731 30.08 92.16 32.05 97.541 33.699 102.762 34.901 107.11 36.2 110.509 37.215 113.064 38.012 116.14 39.09 119.418 40.239 122.786 41.529 126.2 42.93 129.815 44.414 133.556 46.278 137.25 47.79 140.887 49.278 144.842 50.523 148.19 51.94 151.115 53.178 153.663 54.682 156.28 55.73 158.638 56.675 161.33 57.271 163.16 58.04 164.44 58.577 165.133 59.17 166.32 59.65 167.734 60.221 169.712 60.56 171.13 61.12 172.32 61.59 173.198 62.051 174.31 62.68 175.627 63.424 177.209 64.787 178.48 65.37 179.426 65.804 180.305 65.958 181.12 66.15 181.806 66.312 182.486 66.337 183.04 66.49 183.482 66.612 183.834 66.809 184.2 66.93 184.519 67.036 184.802 67.115 185.11 67.19 185.422 67.266 185.725 67.241 186.06 67.38 186.508 67.565 187.041 67.956 187.5 68.34 188.002 68.76 188.599 69.176 188.93 69.83 189.346 70.652 189.511 71.911 189.49 73.04 189.466 74.309 189.189 75.748 188.63 77.07 187.995 78.574 187.041 79.924 185.67 81.5 183.674 83.794 180.388 86.639 177.24 89.01 173.755 91.635 169.693 93.833 165.54 96.4 160.87 99.286 155.727 102.371 150.57 105.45 145.094 108.72 138.949 112.184 133.58 115.47 128.648 118.489 124.303 121.43 119.53 124.39 114.637 127.424 109.353 130.384 104.57 133.45 100.022 136.365 95.778 139.579 91.48 142.32 87.452 144.889 83.366 147.183 79.57 149.46 76.091 151.547 72.61 153.667 69.57 155.46 67.044 156.95 64.741 158.391 62.6 159.5 60.852 160.405 59.15 161.005 57.72 161.74 56.552 162.341 55.637 162.908 54.61 163.52 53.58 164.134 52.099 164.985 51.55 165.42 51.322 165.601 51.278 165.721 51.11 165.86 50.923 166.016 50.74 166.096 50.47 166.3 49.956 166.688 49.092 167.479 48.31 168.09 47.426 168.781 46.394 169.522 45.42 170.22 44.444 170.919 43.356 171.597 42.46 172.28 41.669 172.883 41.002 173.551 40.3 174.08 39.679 174.549 38.868 174.984 38.48 175.32 38.269 175.503 38.26 175.591 38.04 175.8 37.526 176.29 36.135 177.453 35.3 178.08 34.645 178.572 34.099 178.915 33.48 179.31 32.856 179.708 32.118 180.102 31.57 180.46 31.138 180.742 30.809 180.982 30.44 181.26 30.069 181.539 29.709 181.833 29.35 182.13 28.989 182.429 28.693 182.731 28.28 183.05 27.764 183.448 27.087 183.901 26.47 184.3 25.85 184.701 24.971 185.139 24.57 185.45 24.359 185.613 24.269 185.715 24.13 185.88 23.974 186.066 23.851 186.333 23.69 186.52 23.542 186.692 23.428 186.79 23.21 186.97 22.811 187.298 21.908 187.958 21.43 188.25 21.132 188.432 20.879 188.498 20.67 188.64 20.501 188.755 20.413 188.89 20.25 189.01 20.054 189.154 19.815 189.262 19.56 189.43 19.226 189.651 18.777 190.028 18.43 190.24 18.158 190.406 17.945 190.47 17.67 190.63 17.321 190.832 16.957 191.112 16.52 191.38 15.964 191.721 15.141 192.14 14.59 192.49 14.156 192.766 13.807 193.072 13.46 193.28 13.185 193.445 12.901 193.529 12.69 193.67 12.521 193.783 12.434 193.912 12.27 194.03 12.071 194.173 11.768 194.295 11.57 194.45 11.397 194.585 11.298 194.752 11.13 194.89 10.943 195.044 10.764 195.179 10.49 195.32 10.072 195.535 9.313 195.722 8.81 195.95 8.377 196.146 7.64 196.58 7.64 196.58 " transform="matrix(1,0,0,1,109,49)"/>
</svg>