<svg version="1.1" xmlns="http://www.w3.org/2000/svg" xmlns:xlink="http://www.w3.org/1999/xlink" width="24" height="24" viewBox="0 0 369 297">
<path style="fill: none; stroke: #000000; mix-blend-mode: source-over; stroke-dasharray: none; stroke-dashoffset: 0; stroke-linecap: round; stroke-linejoin: round; stroke-miterlimit: 4; stroke-opacity: 1; stroke-width: 28;" d="M304.99 70.07 C304.99 70.07 304.99 70.07 304.99 70.07 304.99 70.07 304.99 70.07 304.99 70.07 304.99 70.07 304.99 70.07 304.99 70.07 304.99 70.07 305.019 70.142 305.04 70.23 305.126 70.595 305.397 72.238 305.51 73.11 305.603 73.83 305.646 74.315 305.7 75.09 305.776 76.189 305.729 77.845 305.87 79.08 305.994 80.167 306.222 80.981 306.44 82.12 306.72 83.583 307.096 85.384 307.42 87.13 307.773 89.036 308.005 91.219 308.47 93.12 308.906 94.901 309.608 96.517 310.08 98.21 310.541 99.864 310.897 101.598 311.28 103.16 311.624 104.565 311.846 105.831 312.27 107.16 312.709 108.538 313.412 109.833 313.89 111.28 314.401 112.829 314.804 114.537 315.21 116.18 315.617 117.827 315.966 119.583 316.33 121.15 316.658 122.559 317.059 123.746 317.29 125.16 317.543 126.708 317.63 128.433 317.73 130.08 317.831 131.736 318.115 133.278 317.89 135.07 317.616 137.253 316.625 139.837 315.83 142.19 315.025 144.574 314.042 147.024 313.08 149.28 312.177 151.398 311.317 153.348 310.25 155.35 309.145 157.423 307.793 159.379 306.54 161.5 305.212 163.747 304.099 166.387 302.5 168.48 300.94 170.522 298.866 172.161 297.1 173.94 295.405 175.647 293.808 177.504 292.11 178.95 290.575 180.257 288.92 181.227 287.42 182.32 286.025 183.337 284.983 184.191 283.4 185.29 281.225 186.8 278.165 188.861 275.5 190.44 272.907 191.977 270.338 193.187 267.63 194.66 264.724 196.241 261.693 197.878 258.62 199.63 255.349 201.495 251.871 203.946 248.57 205.55 245.601 206.992 242.525 207.734 239.78 208.98 237.246 210.13 235.113 211.546 232.65 212.69 230.114 213.868 227.494 214.891 224.77 215.93 221.895 217.026 218.894 218.062 215.82 219.08 212.596 220.148 209.26 221.171 205.85 222.18 202.288 223.234 198.362 224.36 194.88 225.26 191.748 226.069 188.984 226.696 185.91 227.38 182.677 228.099 179.259 228.777 175.93 229.46 172.599 230.143 168.841 230.926 165.93 231.48 163.682 231.908 161.736 232.322 159.94 232.55 158.489 232.734 157.302 232.686 155.98 232.85 154.639 233.017 153.194 233.388 151.95 233.55 150.888 233.688 150.099 233.742 148.98 233.81 147.532 233.898 145.653 233.838 143.99 233.98 142.313 234.123 140.421 234.521 138.96 234.67 137.84 234.784 136.975 234.82 135.98 234.87 134.985 234.92 133.988 234.945 132.99 234.97 131.991 234.995 131.062 235.007 129.99 235.02 128.752 235.035 127.323 235.043 125.99 235.05 124.657 235.057 123.323 235.057 121.99 235.06 120.657 235.063 119.398 235.068 117.99 235.07 116.416 235.072 114.445 235.07 112.99 235.07 111.863 235.07 111.062 235.07 109.99 235.07 108.752 235.07 107.323 235.164 105.99 235.07 104.646 234.975 103.302 234.635 101.96 234.5 100.632 234.366 99.441 234.401 97.98 234.26 96.177 234.086 93.868 233.87 91.96 233.46 90.173 233.076 88.458 232.266 86.86 231.93 85.489 231.642 84.184 231.761 82.97 231.45 81.834 231.159 80.573 230.556 79.78 230.18 79.285 229.945 79.052 229.77 78.61 229.53 78.04 229.22 77.42 228.826 76.64 228.48 75.587 228.013 73.907 227.729 72.81 227.1 71.825 226.536 71.169 225.691 70.29 225 69.37 224.277 68.375 223.467 67.4 222.86 66.497 222.299 65.509 221.971 64.66 221.45 63.856 220.956 63.132 220.221 62.42 219.83 61.851 219.518 61.4 219.516 60.78 219.18 59.836 218.668 58.405 217.45 57.44 216.81 56.729 216.339 56.246 216.138 55.55 215.64 54.594 214.956 53.373 213.698 52.31 212.98 51.401 212.366 50.459 212.125 49.62 211.51 48.736 210.862 48.077 210.042 47.16 209.15 45.978 208.001 44.241 206.278 43.13 205.18 42.344 204.404 41.784 203.991 41.12 203.19 40.294 202.193 39.533 200.796 38.67 199.56 37.749 198.24 36.721 196.939 35.75 195.51 34.701 193.966 33.724 192.316 32.61 190.6 31.37 188.691 29.844 186.689 28.64 184.58 27.405 182.418 26.275 179.869 25.31 177.77 24.497 176.002 23.884 174.388 23.18 172.83 22.538 171.41 21.915 170.133 21.27 168.79 20.625 167.446 19.865 166.012 19.31 164.77 18.844 163.727 18.575 162.897 18.12 161.85 17.579 160.604 16.786 159.15 16.25 157.8 15.737 156.507 15.448 155.22 14.95 153.92 14.43 152.564 13.785 151.263 13.18 149.83 12.515 148.254 11.701 146.422 11.13 144.85 10.631 143.476 10.28 142.244 9.89 140.93 9.5 139.614 9.148 138.191 8.79 136.96 8.477 135.882 8.267 134.943 7.87 133.94 7.451 132.879 6.681 131.812 6.31 130.77 5.977 129.835 5.908 129.008 5.67 128 5.383 126.786 5.03 125.23 4.7 123.99 4.412 122.906 4.123 121.968 3.82 120.96 3.516 119.951 3.111 118.945 2.88 117.94 2.657 116.972 2.628 116.083 2.44 115.04 2.218 113.804 1.891 112.426 1.6 111.01 1.276 109.434 0.81 107.463 0.59 106.01 0.422 104.902 0.365 104.048 0.29 103.06 0.215 102.068 0.177 101.068 0.14 100.07 0.103 99.071 0.088 98.07 0.07 97.07 0.052 96.07 -0.044 95.069 0.03 94.07 0.104 93.059 0.319 92.119 0.52 91.04 0.753 89.79 0.909 88.413 1.37 87.01 1.913 85.356 2.802 83.582 3.74 81.8 4.791 79.803 6.211 77.841 7.45 75.64 8.831 73.187 10.202 70.173 11.6 67.73 12.855 65.537 14.109 63.643 15.4 61.62 16.693 59.593 18.117 57.383 19.35 55.58 20.375 54.081 21.376 52.876 22.25 51.52 23.076 50.239 23.754 48.872 24.48 47.67 25.134 46.588 25.67 45.629 26.4 44.62 27.188 43.531 28.254 42.53 29.08 41.38 29.927 40.2 30.477 38.794 31.41 37.62 32.388 36.389 33.758 35.39 34.86 34.19 35.976 32.975 36.897 31.455 38.06 30.37 39.143 29.36 40.442 28.723 41.56 27.83 42.664 26.948 43.791 25.899 44.73 25.05 45.499 24.354 46.232 23.655 46.8 23.12 47.201 22.743 47.424 22.532 47.82 22.15 48.381 21.608 49.088 20.752 49.84 20.17 50.616 19.57 51.61 19.175 52.42 18.62 53.199 18.086 53.828 17.5 54.62 16.91 55.52 16.239 56.671 15.404 57.55 14.82 58.241 14.361 58.934 13.917 59.44 13.65 59.759 13.481 59.92 13.441 60.25 13.29 60.773 13.051 61.529 12.661 62.27 12.34 63.151 11.959 64.219 11.636 65.2 11.18 66.245 10.695 67.313 9.989 68.35 9.49 69.321 9.023 70.193 8.726 71.23 8.26 72.47 7.703 73.848 6.896 75.28 6.35 76.798 5.771 78.575 5.353 80.11 4.92 81.498 4.528 82.624 4.193 84.09 3.85 85.871 3.433 88.151 3.04 90.05 2.66 91.79 2.312 93.383 1.993 95.05 1.66 96.717 1.327 98.238 0.894 100.05 0.66 102.168 0.387 104.473 0.342 107 0.25 110.028 0.14 113.659 0.138 116.99 0.11 120.322 0.082 123.657 0.085 126.99 0.08 130.323 0.075 134.23 -0.09 136.99 0.08 138.953 0.201 140.34 0.454 142.01 0.7 143.686 0.947 145.282 1.263 147.03 1.56 148.941 1.884 151.134 2.002 153.03 2.57 154.864 3.12 156.519 4.134 158.24 4.87 159.914 5.586 161.558 6.25 163.22 6.93 164.881 7.61 166.476 8.193 168.21 8.95 170.145 9.795 172.195 10.746 174.28 11.8 176.563 12.955 178.987 14.456 181.35 15.64 183.647 16.791 186.041 17.768 188.26 18.82 190.344 19.807 192.38 20.76 194.29 21.76 196.07 22.692 197.685 23.644 199.37 24.61 201.055 25.577 202.727 26.572 204.4 27.56 206.073 28.548 207.831 29.648 209.41 30.54 210.793 31.321 211.91 31.813 213.35 32.65 215.179 33.712 217.505 35.411 219.45 36.48 221.126 37.401 222.746 38.039 224.28 38.78 225.683 39.458 226.97 39.997 228.3 40.75 229.701 41.543 231.194 42.618 232.47 43.45 233.556 44.159 234.4 44.773 235.48 45.43 236.682 46.161 238.157 46.897 239.37 47.61 240.461 48.251 241.529 48.962 242.44 49.5 243.156 49.923 243.726 50.171 244.38 50.6 245.11 51.079 245.878 51.687 246.6 52.27 247.325 52.856 248.023 53.484 248.72 54.11 249.419 54.738 250.105 55.384 250.79 56.03 251.475 56.677 252.074 57.412 252.83 57.99 253.609 58.586 254.684 58.901 255.41 59.54 256.107 60.154 256.536 61.1 257.13 61.72 257.648 62.261 258.238 62.596 258.73 63.1 259.226 63.608 259.592 64.181 260.09 64.76 260.661 65.423 261.53 66.178 261.98 66.85 262.327 67.368 262.386 67.821 262.7 68.36 263.102 69.051 263.815 69.998 264.27 70.61 264.595 71.047 264.836 71.288 265.14 71.71 265.521 72.24 265.975 73.025 266.35 73.56 266.648 73.985 266.902 74.313 267.19 74.68 267.478 75.047 267.777 75.404 268.08 75.76 268.384 76.117 268.688 76.41 269.01 76.82 269.412 77.332 269.868 78.006 270.27 78.62 270.674 79.236 270.99 79.808 271.43 80.51 271.991 81.406 272.82 82.646 273.37 83.55 273.803 84.261 274.055 84.908 274.49 85.48 274.904 86.024 275.456 86.4 275.9 86.92 276.362 87.46 276.788 88.069 277.2 88.67 277.615 89.275 277.997 89.908 278.38 90.54 278.764 91.175 279.215 91.827 279.5 92.47 279.759 93.054 279.885 93.86 280.06 94.22 280.146 94.398 280.2 94.417 280.31 94.59 280.556 94.977 281.45 96.5 281.45 96.5 281.45 96.5 281.45 96.5 281.45 96.5 281.45 96.5 281.45 96.5 281.45 96.5 281.45 96.5 281.13 97.3 281.13 97.3 " transform="matrix(1,0,0,1,17.0110483,25.930114500000002)"/>
<path style="fill: none; stroke: #000000; mix-blend-mode: source-over; stroke-dasharray: none; stroke-dashoffset: 0; stroke-linecap: round; stroke-linejoin: round; stroke-miterlimit: 4; stroke-opacity: 1; stroke-width: 28;" d="M0 0 C0 0 0 0 0 0 0 0 0 0 0 0 0 0 0.588 1.361 0.89 2.21 1.287 3.326 1.736 4.589 2.11 6.14 2.633 8.305 2.885 11.198 3.49 14.04 4.211 17.427 5.38 20.944 6.27 25.09 7.396 30.336 8.717 37.222 9.47 43.05 10.175 48.51 10.368 53.771 10.76 59.01 11.139 64.086 11.433 69.398 11.79 74.01 12.096 77.962 12.388 81.896 12.74 85.01 13.001 87.321 13.275 89.117 13.58 91.03 13.859 92.782 14.166 94.472 14.48 96.05 14.762 97.467 15.053 98.827 15.36 100.07 15.629 101.158 15.909 102.027 16.2 103.11 16.533 104.349 16.994 105.767 17.24 107.1 17.48 108.404 17.471 110.114 17.67 111.02 17.78 111.518 18.05 112.15 18.05 112.15 " transform="matrix(1,0,0,1,118.0005542,89.0020098)"/>
<path style="fill: none; stroke: #000000; mix-blend-mode: source-over; stroke-dasharray: none; stroke-dashoffset: 0; stroke-linecap: round; stroke-linejoin: round; stroke-miterlimit: 4; stroke-opacity: 1; stroke-width: 28;" d="M0.07 0 C0.07 0 0.07 0 0.07 0 0.07 0 -0.098 4.314 0.07 7 0.299 10.678 1.245 15.597 1.7 20.02 2.171 24.594 2.351 29.194 2.83 34.01 3.343 39.171 4.217 44.598 4.72 50.02 5.237 55.593 5.492 61.726 5.87 67.01 6.201 71.634 6.512 75.858 6.85 80.01 7.161 83.831 7.618 87.428 7.81 91.01 7.993 94.417 7.971 98.24 8.01 101 8.037 102.952 7.921 104.544 8.05 106 8.152 107.143 8.447 108.133 8.57 109.04 8.669 109.769 8.72 110.473 8.77 111.02 8.805 111.406 8.828 111.68 8.85 112.01 8.872 112.34 8.9 113 8.9 113 " transform="matrix(1,0,0,1,194.9251255,88.0024377)"/>
</svg>