<svg version="1.1" xmlns="http://www.w3.org/2000/svg" xmlns:xlink="http://www.w3.org/1999/xlink" width="24" height="24" viewBox="0 0 369 297">
<path style="fill: none; stroke: #000000; mix-blend-mode: source-over; stroke-dasharray: none; stroke-dashoffset: 0; stroke-linecap: round; stroke-linejoin: round; stroke-miterlimit: 4; stroke-opacity: 1; stroke-width: 28;" d="M112.08 0 C112.08 0 111.712 0.703 111.42 1.32 110.756 2.721 109.444 5.954 108.31 8.26 107.143 10.634 106.044 12.894 104.5 15.36 102.666 18.289 100.213 21.552 97.84 24.57 95.399 27.675 92.714 30.52 90.03 33.72 87.112 37.199 83.726 41.601 80.99 44.69 78.878 47.075 76.769 48.861 75.15 50.83 73.813 52.456 72.775 54.297 71.81 55.55 71.138 56.422 70.627 56.995 70.01 57.7 69.39 58.408 68.493 59.273 68.1 59.79 67.892 60.063 67.883 60.246 67.68 60.46 67.409 60.746 67.092 61.027 66.53 61.27 65.407 61.755 62.901 62.145 61.02 62.4 59.083 62.662 57.472 62.706 55.07 62.8 51.39 62.945 45.9 62.928 41.08 62.96 35.926 62.994 30.325 63.128 25.08 62.99 19.997 62.856 14.14 62.316 10.08 62.17 7.308 62.071 4.706 62.072 3.08 62.05 2.211 62.038 1.632 62.036 1.08 62.03 0.689 62.026 0.08 62.02 0.08 62.02 0.08 62.02 0.08 62.02 0.08 62.02 0.08 62.02 -0.102 65.81 0.08 68 0.305 70.712 1.052 73.814 1.59 77.04 2.21 80.757 3.052 85.218 3.59 89.04 4.079 92.513 4.362 95.988 4.74 99.02 5.057 101.564 5.479 103.783 5.68 106.03 5.865 108.096 5.894 110.208 5.95 112 5.996 113.466 6.003 114.762 6.02 116 6.035 117.072 6.125 118 6.05 119 5.974 120.013 5.664 121.305 5.56 122.04 5.501 122.456 5.395 122.781 5.44 123.02 5.469 123.172 5.496 123.242 5.63 123.37 6.002 123.725 7.311 124.359 8.38 124.7 9.721 125.128 11.33 125.309 13.12 125.5 15.425 125.746 18.352 125.557 21.08 125.86 24.01 126.185 26.847 126.815 30.13 127.47 34.084 128.259 39.082 129.802 43.15 130.35 46.663 130.824 50.332 130.756 53.08 130.85 55.029 130.917 56.789 130.919 58.08 130.94 58.897 130.953 59.346 130.963 60.08 130.97 60.979 130.978 62.178 130.887 63.08 130.98 63.835 131.057 64.58 131.3 65.14 131.4 65.523 131.469 65.73 131.43 66.11 131.55 66.722 131.743 67.665 131.985 68.39 132.67 69.555 133.771 70.491 136.316 71.61 138.39 72.915 140.809 74.372 143.588 75.71 146.33 77.115 149.209 78.418 152.61 79.83 155.28 81.035 157.559 82.277 159.311 83.53 161.43 84.858 163.676 86.203 166.281 87.58 168.4 88.805 170.285 90.132 172.08 91.32 173.57 92.286 174.781 93.251 175.801 94.1 176.74 94.796 177.509 95.314 178.058 96.03 178.81 96.907 179.731 98.101 180.942 98.99 181.85 99.715 182.59 100.421 183.304 100.97 183.86 101.359 184.254 101.662 184.615 101.97 184.87 102.197 185.058 102.382 185.168 102.61 185.3 102.85 185.439 103.112 185.567 103.38 185.68 103.658 185.798 104.25 185.99 104.25 185.99 104.25 185.99 104.25 185.99 104.25 185.99 104.25 185.99 106.218 182.218 106.91 179.76 107.828 176.5 108.165 172.075 108.64 167.97 109.156 163.516 109.467 158.809 109.83 153.99 110.218 148.838 110.68 143.147 110.88 137.99 111.067 133.173 111.016 128.89 111.05 124 111.088 118.609 110.918 112.391 111.08 107 111.228 102.102 111.736 97.816 111.9 92.99 112.075 87.838 111.863 82.053 112.05 77 112.219 72.437 112.722 68.408 112.89 63.99 113.064 59.414 112.659 54.009 113.05 50 113.349 46.934 114.096 44.437 114.54 41.95 114.922 39.807 115.345 37.869 115.57 35.96 115.774 34.232 115.817 32.649 115.89 30.99 115.963 29.329 115.88 27.663 116.01 26 116.141 24.323 116.542 22.264 116.68 20.97 116.767 20.16 116.797 19.651 116.84 18.99 116.883 18.328 116.913 17.731 116.94 17 116.973 16.102 116.993 14.899 117.01 14 117.024 13.266 117.032 12.734 117.04 12 117.05 11.101 117.058 9.732 117.06 9 117.061 8.577 117.059 8.391 117.06 8 117.061 7.448 117.068 6.667 117.07 6 117.072 5.333 117.067 4.552 117.07 4 117.072 3.609 117.078 3.333 117.08 3 117.082 2.667 117.08 2.333 117.08 2 117.08 1.667 117.08 1 117.08 1 " transform="matrix(1,0,0,1,60.91940913597827,68)"/>
<path style="fill: none; stroke: #000000; mix-blend-mode: source-over; stroke-dasharray: none; stroke-dashoffset: 0; stroke-linecap: round; stroke-linejoin: round; stroke-miterlimit: 4; stroke-opacity: 1; stroke-width: 28;" d="M0 0 C0 0 0 0 0 0 0 0 0.072 0.005 0.15 0.05 0.687 0.36 3.85 2.978 5.75 5.01 8.17 7.599 10.654 11 13.17 14.62 16.188 18.963 19.31 24.693 22.41 29.45 25.359 33.975 28.098 38.226 31.31 42.52 34.642 46.974 38.779 51.589 42.1 55.68 44.981 59.229 47.396 62.554 50.12 65.66 52.679 68.578 55.579 71.769 57.93 73.83 59.609 75.301 61.575 76.457 62.58 77.23 63.076 77.611 63.252 77.802 63.67 78.11 64.194 78.497 65.007 79.061 65.5 79.34 65.81 79.515 66.29 79.71 66.29 79.71 66.29 79.71 66.29 79.71 66.29 79.71 66.29 79.71 66.29 79.71 66.29 79.71 " transform="matrix(1,0,0,1,230,112)"/>
<path style="fill: none; stroke: #000000; mix-blend-mode: source-over; stroke-dasharray: none; stroke-dashoffset: 0; stroke-linecap: round; stroke-linejoin: round; stroke-miterlimit: 4; stroke-opacity: 1; stroke-width: 28;" d="M75.67 0 C75.67 0 75.67 0 75.67 0 75.67 0 70.838 4.415 67.9 6.99 64.15 10.277 59.976 14.133 54.95 18.05 48.504 23.074 39.356 29.029 32.11 34.26 25.457 39.062 18.59 44.409 13.08 48.23 8.987 51.068 4.402 53.743 2.18 55.36 1.15 56.11 0 57.12 0 57.12 " transform="matrix(1,0,0,1,221.3341966077437,118)"/>
</svg>