<svg version="1.1" xmlns="http://www.w3.org/2000/svg" xmlns:xlink="http://www.w3.org/1999/xlink" width="24" height="24" viewBox="0 0 369 297">
<path style="fill: none; stroke: #000000; mix-blend-mode: source-over; stroke-dasharray: none; stroke-dashoffset: 0; stroke-linecap: round; stroke-linejoin: round; stroke-miterlimit: 4; stroke-opacity: 1; stroke-width: 28;" d="M112.08 0 C112.08 0 111.712 0.703 111.42 1.32 110.756 2.721 109.444 5.954 108.31 8.26 107.143 10.634 106.044 12.894 104.5 15.36 102.666 18.289 100.213 21.552 97.84 24.57 95.399 27.675 92.714 30.52 90.03 33.72 87.112 37.199 83.726 41.601 80.99 44.69 78.878 47.075 76.769 48.861 75.15 50.83 73.813 52.456 72.775 54.297 71.81 55.55 71.138 56.422 70.627 56.995 70.01 57.7 69.39 58.408 68.493 59.273 68.1 59.79 67.892 60.063 67.883 60.246 67.68 60.46 67.409 60.746 67.092 61.027 66.53 61.27 65.407 61.755 62.901 62.145 61.02 62.4 59.083 62.662 57.472 62.706 55.07 62.8 51.39 62.945 45.9 62.928 41.08 62.96 35.926 62.994 30.325 63.128 25.08 62.99 19.997 62.856 14.14 62.316 10.08 62.17 7.308 62.071 4.706 62.072 3.08 62.05 2.211 62.038 1.632 62.036 1.08 62.03 0.689 62.026 0.08 62.02 0.08 62.02 0.08 62.02 0.08 62.02 0.08 62.02 0.08 62.02 -0.102 65.81 0.08 68 0.305 70.712 1.052 73.814 1.59 77.04 2.21 80.757 3.052 85.218 3.59 89.04 4.079 92.513 4.362 95.988 4.74 99.02 5.057 101.564 5.479 103.783 5.68 106.03 5.865 108.096 5.894 110.208 5.95 112 5.996 113.466 6.003 114.762 6.02 116 6.035 117.072 6.125 118 6.05 119 5.974 120.013 5.664 121.305 5.56 122.04 5.501 122.456 5.395 122.781 5.44 123.02 5.469 123.172 5.496 123.242 5.63 123.37 6.002 123.725 7.311 124.359 8.38 124.7 9.721 125.128 11.33 125.309 13.12 125.5 15.425 125.746 18.352 125.557 21.08 125.86 24.01 126.185 26.847 126.815 30.13 127.47 34.084 128.259 39.082 129.802 43.15 130.35 46.663 130.824 50.332 130.756 53.08 130.85 55.029 130.917 56.789 130.919 58.08 130.94 58.897 130.953 59.346 130.963 60.08 130.97 60.979 130.978 62.178 130.887 63.08 130.98 63.835 131.057 64.58 131.3 65.14 131.4 65.523 131.469 65.73 131.43 66.11 131.55 66.722 131.743 67.665 131.985 68.39 132.67 69.555 133.771 70.491 136.316 71.61 138.39 72.915 140.809 74.372 143.588 75.71 146.33 77.115 149.209 78.418 152.61 79.83 155.28 81.035 157.559 82.277 159.311 83.53 161.43 84.858 163.676 86.203 166.281 87.58 168.4 88.805 170.285 90.132 172.08 91.32 173.57 92.286 174.781 93.251 175.801 94.1 176.74 94.796 177.509 95.314 178.058 96.03 178.81 96.907 179.731 98.101 180.942 98.99 181.85 99.715 182.59 100.421 183.304 100.97 183.86 101.359 184.254 101.662 184.615 101.97 184.87 102.197 185.058 102.382 185.168 102.61 185.3 102.85 185.439 103.112 185.567 103.38 185.68 103.658 185.798 104.25 185.99 104.25 185.99 104.25 185.99 104.25 185.99 104.25 185.99 104.25 185.99 106.218 182.218 106.91 179.76 107.828 176.5 108.165 172.075 108.64 167.97 109.156 163.516 109.467 158.809 109.83 153.99 110.218 148.838 110.68 143.147 110.88 137.99 111.067 133.173 111.016 128.89 111.05 124 111.088 118.609 110.918 112.391 111.08 107 111.228 102.102 111.736 97.816 111.9 92.99 112.075 87.838 111.863 82.053 112.05 77 112.219 72.437 112.722 68.408 112.89 63.99 113.064 59.414 112.659 54.009 113.05 50 113.349 46.934 114.096 44.437 114.54 41.95 114.922 39.807 115.345 37.869 115.57 35.96 115.774 34.232 115.817 32.649 115.89 30.99 115.963 29.329 115.88 27.663 116.01 26 116.141 24.323 116.542 22.264 116.68 20.97 116.767 20.16 116.797 19.651 116.84 18.99 116.883 18.328 116.913 17.731 116.94 17 116.973 16.102 116.993 14.899 117.01 14 117.024 13.266 117.032 12.734 117.04 12 117.05 11.101 117.058 9.732 117.06 9 117.061 8.577 117.059 8.391 117.06 8 117.061 7.448 117.068 6.667 117.07 6 117.072 5.333 117.067 4.552 117.07 4 117.072 3.609 117.078 3.333 117.08 3 117.082 2.667 117.08 2.333 117.08 2 117.08 1.667 117.08 1 117.08 1 " transform="matrix(1,0,0,1,60.91940913597827,68)"/>
<path style="fill: none; stroke: #000000; mix-blend-mode: source-over; stroke-dasharray: none; stroke-dashoffset: 0; stroke-linecap: round; stroke-linejoin: round; stroke-miterlimit: 4; stroke-opacity: 1; stroke-width: 28;" d="M0 0.38 C0 0.38 0 0.38 0 0.38 0 0.38 0.61 0.159 1.09 0.11 1.986 0.018 3.784 -0.143 5 0.26 6.272 0.681 7.353 1.612 8.53 2.68 10.042 4.052 11.584 5.946 13.07 8.09 14.934 10.78 17.158 14.656 18.53 17.77 19.706 20.439 20.411 22.998 21.07 25.53 21.682 27.881 22.143 30.45 22.42 32.44 22.628 33.933 22.672 35.069 22.75 36.39 22.829 37.716 23.058 39.143 22.89 40.38 22.737 41.503 22.322 42.578 21.9 43.52 21.521 44.368 21.122 45.148 20.54 45.81 19.947 46.485 19.147 46.928 18.36 47.52 17.462 48.195 16.491 48.941 15.43 49.63 14.253 50.394 12.892 51.248 11.59 51.87 10.347 52.464 8.852 52.994 7.8 53.31 7.077 53.527 6.453 53.628 5.93 53.73 5.555 53.803 5.182 53.818 4.96 53.89 4.835 53.931 4.68 54.03 4.68 54.03 " transform="matrix(1,0,0,1,222,140.61861678622506)"/>
<path style="fill: none; stroke: #000000; mix-blend-mode: source-over; stroke-dasharray: none; stroke-dashoffset: 0; stroke-linecap: round; stroke-linejoin: round; stroke-miterlimit: 4; stroke-opacity: 1; stroke-width: 28;" d="M32.18 0 C32.18 0 32.18 0 32.18 0 32.18 0 34.228 0.819 35.49 1.66 37.541 3.027 40.45 5.588 42.9 8.04 45.699 10.842 48.283 14.17 51.22 17.72 54.689 21.913 58.879 26.938 62.31 31.65 65.625 36.203 68.574 40.94 71.51 45.5 74.323 49.869 77.755 54.208 79.59 58.45 81.149 62.054 81.579 65.511 82.41 69.1 83.247 72.714 84.142 76.236 84.59 80.06 85.073 84.176 85.484 88.623 85.07 93 84.633 97.623 83.195 102.607 81.84 107.08 80.556 111.318 79.097 115.313 77.24 119.2 75.381 123.09 73.136 127.057 70.69 130.41 68.414 133.529 65.823 135.954 63.18 138.77 60.368 141.767 57.357 145.344 54.27 147.86 51.507 150.112 48.512 151.591 45.7 153.38 42.995 155.101 40.292 156.832 37.71 158.4 35.324 159.85 33.17 161.145 30.76 162.48 28.223 163.885 25.775 165.207 22.84 166.61 19.3 168.302 14.498 170.161 10.93 171.8 7.97 173.159 4.667 174.818 2.88 175.69 1.985 176.126 1.407 176.453 0.87 176.68 0.525 176.826 0 176.99 0 176.99 " transform="matrix(1,0,0,1,235.8247049908802,74)"/>
</svg>